<svg xmlns="http://www.w3.org/2000/svg" viewBox="0 0 1428 561" width="1428" height="561"><defs></defs><g transform="matrix(1,0,0,1,-115.272906553,-90.544213864)">
<g>
	<g>
		<g transform="matrix(1,0,0,1,-106.28253545,-270.791150358)">
			<path d="M374.255393,363.248184C373.255393,364.248184 372.555442,365.848159 372.555442,366.748184 C372.555442,367.748184 372.155418,369.248184 371.655418,370.248184 C370.155418,373.148086 368.755393,376.748184 367.455466,380.948135 C366.755393,383.148086 365.755393,385.348159 365.355491,385.848159 C364.955466,386.448135 364.555442,387.648086 364.555442,388.648086 C364.555442,389.648086 364.155418,391.248184 363.655418,392.248184 C362.455466,394.54811 361.055442,398.248184 359.555442,402.448135 C358.855491,404.348159 357.955466,406.848159 357.555442,407.948135 C357.155418,409.04811 356.255393,411.54811 355.555442,413.448135 C354.855491,415.348159 353.955466,417.848159 353.555442,418.948135 C353.155418,420.04811 352.255393,422.54811 351.555442,424.448135 C350.855491,426.348159 349.955466,428.848159 349.555442,429.948135 C349.155418,431.04811 348.255393,433.54811 347.555442,435.448135 C346.855491,437.348159 345.955466,439.848159 345.555442,440.948135 C345.155418,442.04811 344.255393,444.54811 343.555442,446.448135 C342.855491,448.348159 341.955466,450.848159 341.555442,451.948135 C340.755393,453.848159 339.355491,457.648086 334.555442,470.948135 C333.455466,473.948135 331.655418,478.948135 330.555442,481.948135 C329.455466,484.948135 327.655418,489.848159 326.655418,492.648086 C325.555442,495.54811 323.555442,501.04811 322.155418,504.948135 C320.855491,508.748184 318.255393,515.748184 316.555442,520.448135 C314.855491,525.148086 311.955466,533.248184 310.055442,538.448135 C308.255393,543.648086 305.255393,551.748184 303.555442,556.448135 C301.855491,561.148086 299.955466,566.04811 299.555442,567.448135 C298.455466,570.648086 291.655418,589.54811 287.555442,600.448135 C285.755393,605.148086 284.055442,610.04811 283.555442,611.448135 C283.055442,612.848159 281.255393,617.748184 279.555442,622.448135 C277.855491,627.148086 276.055442,632.04811 275.555442,633.448135 C275.055442,634.848159 273.355491,639.748184 271.555442,644.448135 C269.855491,649.148086 267.755393,654.948135 266.955466,657.448135 C265.455466,661.948135 264.755393,663.848159 262.755393,668.448135 C262.155418,669.848159 260.955466,672.948135 260.155418,675.448135 C257.255393,684.148086 254.855491,690.448135 254.255393,691.148086 C253.855491,691.448135 253.555442,692.648086 253.555442,693.648086 C253.555442,694.648086 253.155418,696.248184 252.655418,697.248184 C252.155418,698.148086 250.755393,701.648086 249.555442,704.948135 C248.355491,708.248184 246.955466,711.748184 246.455466,712.648086 C245.955466,713.648086 245.555442,715.148086 245.555442,715.948135 C245.555442,716.748184 245.155418,718.248184 244.655418,719.248184 C243.155418,722.148086 241.755393,725.748184 240.455466,729.948135 C239.755393,732.148086 238.755393,734.348159 238.355491,734.948135 C237.955466,735.448135 237.555442,736.648086 237.555442,737.648086 C237.555442,738.648086 237.155418,740.248184 236.655418,741.248184 C235.155418,744.148086 233.755393,747.748184 232.455466,751.948135 C231.755393,754.148086 230.755393,756.348159 230.355491,756.948135 C229.955466,757.448135 229.555442,758.648086 229.555442,759.648086 C229.555442,760.648086 229.155418,762.248184 228.655418,763.248184 C227.155418,766.148086 225.755393,769.748184 224.455466,773.948135 C223.755393,776.148086 222.755393,778.348159 222.355491,778.948135 C221.955466,779.448135 221.555442,780.848159 221.555442,782.148086 C221.555442,783.848159 222.255393,784.448135 224.855491,784.948135 C226.555442,785.248184 245.555442,785.448135 266.855491,785.248184 C266.855491,785.248184 305.655418,784.948135 305.655418,784.948135 C305.655418,784.948135 307.555442,782.448135 307.555442,782.448135 C308.555442,781.148086 309.555442,778.848159 309.855491,777.448135 C310.155418,776.04811 312.655418,768.448135 315.455466,760.448135 C318.355491,752.448135 321.155418,744.348159 321.755393,742.448135 C322.255393,740.54811 323.255393,737.54811 323.955466,735.948135 C325.955466,731.248184 328.655418,723.248184 329.455466,719.948135 C329.955466,718.248184 330.955466,715.348159 331.755393,713.448135 C333.755393,708.648086 336.655418,700.54811 337.455466,696.948135 C337.955466,695.248184 338.955466,692.348159 339.755393,690.448135 C341.655418,685.948135 344.555442,677.748184 345.555442,673.948135 C345.955466,672.248184 347.755393,667.148086 349.555442,662.448135 C351.355491,657.748184 353.155418,652.54811 353.555442,650.948135 C354.055442,649.248184 356.755393,641.448135 359.555442,633.448135 C362.355491,625.448135 365.955466,615.148086 367.555442,610.448135 C371.255393,599.648086 377.255393,582.54811 383.055442,565.948135 C385.555442,558.748184 389.155418,548.448135 391.055442,542.948135 C401.155418,513.148086 402.655418,508.748184 403.455466,506.948135 C403.955466,505.848159 405.555442,501.54811 406.955466,497.448135 C408.255393,493.348159 410.855491,486.148086 412.555442,481.448135 C414.255393,476.748184 416.355491,470.648086 417.255393,467.948135 C418.055442,465.148086 419.055442,462.54811 419.355491,462.04811 C419.955466,460.948135 430.755393,429.648086 433.155418,421.948135 C434.055442,419.148086 435.155418,416.54811 435.655418,415.948135 C436.155418,415.448135 436.555442,414.348159 436.555442,413.348159 C436.555442,412.448135 437.355491,409.54811 438.455466,406.848159 C440.955466,400.248184 443.855491,392.04811 445.955466,385.948135 C447.755393,380.448135 447.355491,378.54811 442.155418,366.148086 C442.155418,366.148086 440.155418,361.448135 440.155418,361.448135 C440.155418,361.448135 408.055442,361.448135 408.055442,361.448135 C378.155418,361.448135 375.755393,361.54811 374.255393,363.248184 M623.055442,362.648086C622.755393,363.348159 622.655418,459.54811 622.755393,576.448135 C622.755393,576.448135 623.055442,788.948135 623.055442,788.948135 C623.055442,788.948135 662.455466,789.248184 662.455466,789.248184 C690.655418,789.348159 702.255393,789.148086 703.155418,788.348159 C705.055442,786.748184 705.255393,364.54811 703.355491,362.648086 C701.555442,360.848159 623.655418,360.948135 623.055442,362.648086 M767.255393,362.148086C766.855491,362.448135 766.555442,379.148086 766.555442,399.04811 C766.555442,399.04811 766.555442,435.448135 766.555442,435.448135 C766.555442,435.448135 768.855491,435.848159 768.855491,435.848159 C770.055442,436.148086 776.455466,436.54811 783.055442,436.848159 C796.555442,437.448135 802.955466,439.04811 812.955466,444.248184 C827.955466,452.04811 836.455466,464.748184 839.555442,484.04811 C841.555442,496.348159 837.955466,511.348159 830.455466,522.54811 C823.555442,532.748184 813.455466,539.748184 800.055442,543.248184 C793.855491,544.948135 781.155418,546.448135 773.455466,546.448135 C773.455466,546.448135 766.455466,546.448135 766.455466,546.448135 C766.455466,546.448135 766.755393,586.648086 766.755393,586.648086 C766.755393,586.648086 767.055442,626.948135 767.055442,626.948135 C767.055442,626.948135 781.255393,655.448135 781.255393,655.448135 C788.955466,671.148086 798.955466,691.348159 803.355491,700.448135 C811.355491,716.948135 837.755393,771.148086 841.855491,779.248184 C843.055442,781.648086 844.755393,784.04811 845.755393,784.54811 C848.655418,786.04811 938.155418,785.248184 939.755393,783.648086 C940.755393,782.648086 939.955466,780.448135 935.655418,772.148086 C932.755393,766.54811 927.155418,755.848159 923.355491,748.448135 C919.455466,741.04811 913.255393,729.04811 909.555442,721.948135 C905.855491,714.748184 898.755393,701.04811 893.755393,691.248184 C888.755393,681.54811 882.255393,669.148086 879.455466,663.748184 C874.955466,655.248184 863.155418,632.348159 851.755393,610.248184 C848.955466,604.648086 848.555442,603.148086 849.555442,601.948135 C850.255393,601.148086 851.355491,600.448135 852.055442,600.448135 C852.755393,600.448135 856.655418,598.748184 860.755393,596.54811 C888.655418,582.248184 908.455466,559.648086 917.855491,531.448135 C921.355491,520.948135 924.555442,501.54811 924.555442,491.04811 C924.555442,469.348159 917.955466,444.248184 907.255393,425.54811 C887.655418,390.948135 851.755393,367.748184 809.655418,362.448135 C800.355491,361.348159 768.255393,361.04811 767.255393,362.148086 M1117.755393,362.648086C1116.855491,363.54811 1116.555442,372.948135 1116.555442,399.148086 C1116.555442,432.948135 1116.65554,434.448135 1118.455344,435.448135 C1120.855491,436.648086 1247.355491,436.848159 1249.355491,435.648086 C1250.255393,434.948135 1250.555442,426.848159 1250.355491,398.348159 C1250.355491,398.348159 1250.055442,361.948135 1250.055442,361.948135 C1250.055442,361.948135 1184.555442,361.648086 1184.555442,361.648086 C1134.355491,361.448135 1118.65554,361.748184 1117.755393,362.648086 M1430.955344,363.148086C1430.65554,364.148086 1430.055442,365.848159 1429.555442,366.948135 C1429.15554,368.04811 1428.255393,370.54811 1427.555442,372.448135 C1426.855491,374.348159 1425.955344,376.848159 1425.555442,377.948135 C1423.755393,382.348159 1421.255393,389.148086 1419.955344,393.448135 C1419.15554,395.948135 1418.055442,398.848159 1417.65554,399.948135 C1417.15554,401.04811 1416.255393,403.54811 1415.555442,405.448135 C1414.855491,407.348159 1413.955344,409.848159 1413.555442,410.948135 C1413.15554,412.04811 1412.255393,414.54811 1411.555442,416.448135 C1410.855491,418.348159 1409.955344,420.848159 1409.555442,421.948135 C1409.15554,423.04811 1408.255393,425.54811 1407.555442,427.448135 C1406.855491,429.348159 1405.955344,431.848159 1405.555442,432.948135 C1405.15554,434.04811 1404.255393,436.54811 1403.555442,438.448135 C1402.855491,440.348159 1401.955344,442.848159 1401.555442,443.948135 C1401.15554,445.04811 1400.255393,447.54811 1399.555442,449.448135 C1398.855491,451.348159 1397.955344,453.848159 1397.555442,454.948135 C1397.15554,456.04811 1396.255393,458.54811 1395.555442,460.448135 C1394.055442,464.648086 1392.65554,468.348159 1391.455344,470.648086 C1390.955344,471.648086 1390.555442,473.148086 1390.555442,473.948135 C1390.555442,475.448135 1390.15554,476.448135 1387.755393,481.148086 C1387.055442,482.448135 1386.555442,484.148086 1386.555442,484.948135 C1386.555442,486.448135 1386.15554,487.448135 1383.755393,492.148086 C1383.055442,493.448135 1382.555442,495.148086 1382.555442,495.948135 C1382.555442,496.748184 1382.15554,498.348159 1381.555442,499.448135 C1381.055442,500.54811 1380.15554,502.348159 1379.555442,503.448135 C1379.055442,504.54811 1378.555442,506.148086 1378.555442,506.948135 C1378.555442,507.748184 1378.15554,509.348159 1377.555442,510.448135 C1377.055442,511.54811 1376.15554,513.348159 1375.555442,514.448135 C1375.055442,515.54811 1374.555442,517.148086 1374.555442,517.948135 C1374.555442,518.748184 1374.15554,520.248184 1373.65554,521.248184 C1372.455344,523.54811 1371.055442,527.248184 1369.555442,531.448135 C1368.855491,533.348159 1367.955344,535.848159 1367.555442,536.948135 C1367.15554,538.04811 1366.255393,540.54811 1365.555442,542.448135 C1364.855491,544.348159 1363.955344,546.848159 1363.555442,547.948135 C1363.15554,549.04811 1362.255393,551.54811 1361.555442,553.448135 C1360.855491,555.348159 1359.955344,557.848159 1359.555442,558.948135 C1359.15554,560.04811 1358.255393,562.54811 1357.555442,564.448135 C1356.855491,566.348159 1355.955344,568.848159 1355.455344,569.948135 C1355.055442,571.04811 1353.955344,573.948135 1353.15554,576.448135 C1351.65554,581.148086 1348.955344,588.54811 1347.555442,591.948135 C1347.055442,593.04811 1345.955344,595.948135 1345.15554,598.448135 C1344.355491,600.948135 1342.555442,605.848159 1341.255393,609.448135 C1339.955344,613.04811 1332.65554,633.04811 1325.15554,653.948135 C1309.455344,697.248184 1307.65554,702.148086 1306.555442,704.948135 C1306.055442,706.04811 1304.955344,708.948135 1304.15554,711.448135 C1302.855491,715.748184 1300.355491,722.54811 1298.555442,726.948135 C1298.15554,728.04811 1297.255393,730.54811 1296.555442,732.448135 C1295.855491,734.348159 1294.955344,736.848159 1294.555442,737.948135 C1294.15554,739.04811 1293.255393,741.54811 1292.555442,743.448135 C1291.855491,745.348159 1290.955344,747.848159 1290.555442,748.948135 C1290.15554,750.04811 1289.255393,752.54811 1288.555442,754.448135 C1287.855491,756.348159 1286.955344,758.848159 1286.555442,759.948135 C1286.15554,761.04811 1285.255393,763.54811 1284.555442,765.448135 C1283.855491,767.348159 1282.955344,769.848159 1282.455344,770.948135 C1280.355491,775.848159 1278.355491,783.54811 1279.055442,784.248184 C1279.355491,784.648086 1297.755393,785.04811 1319.855491,785.248184 C1362.355491,785.448135 1364.65554,785.248184 1365.355491,780.948135 C1365.555442,779.848159 1366.455344,777.348159 1367.255393,775.448135 C1368.15554,773.54811 1369.15554,770.648086 1369.65554,768.948135 C1370.455344,765.648086 1372.855491,758.448135 1375.555442,751.448135 C1378.255393,744.448135 1380.65554,737.248184 1381.455344,733.948135 C1381.955344,732.248184 1382.855491,729.748184 1383.555442,728.448135 C1384.255393,727.148086 1385.255393,724.648086 1385.65554,722.948135 C1386.055442,721.348159 1388.455344,714.04811 1391.055442,706.948135 C1396.755393,690.948135 1402.65554,674.148086 1407.055442,660.948135 C1408.855491,655.448135 1412.455344,645.04811 1415.055442,637.948135 C1417.555442,630.748184 1421.255393,619.948135 1423.255393,613.948135 C1425.15554,607.848159 1427.15554,602.448135 1427.555442,601.948135 C1427.955344,601.348159 1428.555442,599.848159 1428.855491,598.448135 C1429.355491,596.148086 1433.755393,582.948135 1435.255393,579.448135 C1436.355491,576.648086 1443.65554,555.948135 1444.555442,552.948135 C1445.65554,549.04811 1450.355491,535.54811 1451.455344,532.948135 C1452.955344,529.348159 1455.755393,521.04811 1456.555442,517.848159 C1456.955344,516.04811 1458.055442,513.248184 1458.955344,511.448135 C1459.855491,509.648086 1460.555442,507.54811 1460.555442,506.948135 C1460.555442,506.248184 1461.355491,503.948135 1462.255393,501.848159 C1463.15554,499.648086 1464.455344,496.148086 1465.15554,493.948135 C1465.755393,491.748184 1467.555442,486.748184 1469.055442,482.948135 C1470.555442,479.04811 1472.055442,474.54811 1472.455344,472.948135 C1472.955344,471.248184 1473.955344,468.348159 1474.755393,466.448135 C1475.65554,464.54811 1476.555442,462.04811 1476.855491,460.948135 C1477.15554,459.848159 1479.65554,452.448135 1482.555442,444.448135 C1485.355491,436.448135 1488.055442,428.54811 1488.455344,426.948135 C1488.855491,425.248184 1489.955344,422.348159 1490.755393,420.448135 C1492.755393,415.648086 1495.65554,407.54811 1496.455344,403.948135 C1496.955344,402.248184 1497.955344,399.348159 1498.755393,397.448135 C1500.255393,393.948135 1503.355491,385.448135 1504.255393,382.248184 C1504.755393,380.648086 1503.055442,375.448135 1498.855491,365.148086 C1498.855491,365.148086 1497.255393,361.448135 1497.255393,361.448135 C1497.255393,361.448135 1464.355491,361.448135 1464.355491,361.448135 C1433.955344,361.448135 1431.455344,361.54811 1430.955344,363.148086 M479.055442,478.948135C478.255393,481.04811 477.555442,483.04811 477.555442,483.54811 C477.555442,484.04811 477.155418,485.248184 476.555442,486.248184 C476.055442,487.148086 474.655418,490.848159 473.555442,494.448135 C472.355491,498.04811 471.055442,501.848159 470.555442,502.948135 C470.055442,504.04811 468.055442,509.648086 466.155418,515.448135 C462.555442,526.248184 461.155418,530.148086 450.455466,560.448135 C440.955466,587.54811 440.355491,579.848159 455.455466,625.248184 C462.655418,646.848159 468.555442,664.748184 468.555442,664.948135 C468.555442,665.248184 456.455466,665.448135 441.655418,665.448135 C421.355491,665.448135 414.555442,665.748184 413.855491,666.648086 C413.355491,667.348159 411.455466,672.448135 409.755393,677.948135 C407.955466,683.448135 406.055442,688.848159 405.555442,689.948135 C405.055442,691.04811 403.255393,696.248184 401.555442,701.448135 C399.855491,706.648086 398.055442,711.748184 397.555442,712.648086 C396.955466,713.648086 396.555442,715.148086 396.555442,715.948135 C396.555442,716.748184 396.155418,718.248184 395.555442,719.248184 C395.055442,720.148086 393.655418,723.848159 392.555442,727.448135 C391.355491,731.04811 390.055442,734.848159 389.655418,735.948135 C389.155418,737.04811 388.255393,739.248184 387.655418,740.748184 C387.055442,742.248184 386.555442,744.848159 386.555442,746.448135 C386.555442,746.448135 386.555442,749.448135 386.555442,749.448135 C386.555442,749.448135 495.255393,749.448135 495.255393,749.448135 C495.255393,749.448135 496.355491,751.648086 496.355491,751.648086 C496.955466,752.948135 498.455466,757.04811 499.655418,760.948135 C500.855491,764.748184 502.155418,768.748184 502.655418,769.648086 C503.155418,770.648086 503.555442,772.348159 503.555442,773.348159 C503.555442,774.448135 504.055442,775.648086 504.555442,775.948135 C505.155418,776.248184 505.555442,777.54811 505.555442,778.848159 C505.555442,780.04811 506.455466,782.04811 507.655418,783.348159 C507.655418,783.348159 509.755393,785.54811 509.755393,785.54811 C509.755393,785.54811 551.155418,785.248184 551.155418,785.248184 C584.955466,785.04811 592.755393,784.648086 593.455466,783.54811 C594.355491,782.248184 593.855491,780.648086 587.555442,763.448135 C585.855491,758.748184 583.755393,752.948135 582.855491,750.448135 C582.055442,747.948135 580.955466,745.54811 580.455466,745.04811 C579.955466,744.448135 579.555442,743.348159 579.555442,742.348159 C579.555442,741.448135 578.655418,738.54811 577.655418,735.848159 C576.555442,733.148086 574.755393,728.248184 573.455466,724.948135 C572.255393,721.648086 570.455466,717.04811 569.355491,714.748184 C568.355491,712.348159 567.555442,709.948135 567.555442,709.248184 C567.555442,708.04811 565.155418,701.448135 561.955466,693.948135 C561.355491,692.248184 560.255393,689.348159 559.655418,687.448135 C559.155418,685.54811 557.555442,681.04811 556.255393,677.448135 C554.855491,673.848159 553.155418,669.348159 552.455466,667.448135 C551.755393,665.54811 550.655418,662.54811 549.955466,660.948135 C549.255393,659.248184 548.355491,656.54811 547.955466,654.948135 C547.555442,653.248184 546.955466,651.448135 546.555442,650.948135 C546.155418,650.348159 545.255393,648.148086 544.655418,645.948135 C543.955466,643.748184 542.955466,641.04811 542.455466,639.948135 C541.655418,638.248184 529.855491,606.148086 524.455466,590.948135 C523.455466,588.148086 521.555442,582.748184 520.055442,578.948135 C518.655418,575.04811 516.855491,570.148086 516.055442,567.948135 C515.355491,565.748184 513.555442,560.748184 512.055442,556.948135 C510.655418,553.04811 508.855491,548.148086 508.055442,545.948135 C507.355491,543.748184 505.555442,538.748184 504.055442,534.948135 C502.555442,531.04811 500.955466,526.848159 500.555442,525.448135 C500.055442,524.04811 498.255393,519.148086 496.555442,514.448135 C494.855491,509.748184 493.055442,504.848159 492.555442,503.448135 C492.055442,502.04811 490.255393,497.148086 488.555442,492.448135 C486.755393,487.748184 484.955466,482.54811 484.455466,480.848159 C483.955466,479.04811 482.855491,477.148086 482.055442,476.448135 C480.955466,475.448135 480.355491,475.948135 479.055442,478.948135 M1536.755393,477.648086C1536.055442,478.348159 1535.555442,479.648086 1535.555442,480.54811 C1535.555442,481.54811 1535.15554,482.648086 1534.555442,482.948135 C1534.055442,483.248184 1533.555442,484.648086 1533.555442,485.948135 C1533.555442,487.248184 1533.15554,488.54811 1532.755393,488.848159 C1532.355491,489.148086 1531.355491,491.648086 1530.555442,494.448135 C1529.755393,497.248184 1528.755393,499.748184 1528.355491,500.04811 C1527.955344,500.348159 1527.555442,501.648086 1527.555442,502.948135 C1527.555442,504.248184 1527.15554,505.648086 1526.555442,505.948135 C1526.055442,506.248184 1525.555442,507.648086 1525.555442,508.948135 C1525.555442,510.248184 1525.15554,511.54811 1524.755393,511.848159 C1524.355491,512.148086 1523.355491,514.648086 1522.555442,517.448135 C1521.755393,520.248184 1520.755393,522.748184 1520.355491,523.04811 C1519.955344,523.348159 1519.555442,524.648086 1519.555442,525.948135 C1519.555442,527.248184 1519.15554,528.648086 1518.555442,528.948135 C1518.055442,529.248184 1517.555442,530.648086 1517.555442,531.948135 C1517.555442,533.248184 1517.15554,534.54811 1516.755393,534.848159 C1516.355491,535.148086 1515.355491,537.648086 1514.555442,540.448135 C1513.755393,543.248184 1512.755393,545.748184 1512.355491,546.04811 C1511.955344,546.348159 1511.555442,547.54811 1511.555442,548.848159 C1511.555442,550.04811 1511.15554,551.448135 1510.755393,552.04811 C1510.255393,552.54811 1508.855491,556.348159 1507.555442,560.448135 C1506.255393,564.54811 1504.855491,568.348159 1504.355491,568.948135 C1503.955344,569.448135 1503.555442,570.848159 1503.555442,571.948135 C1503.555442,573.148086 1503.255393,574.448135 1502.855491,574.848159 C1501.755393,575.848159 1499.555442,582.748184 1499.555442,584.948135 C1499.555442,586.148086 1499.955344,587.448135 1500.355491,587.948135 C1500.855491,588.54811 1501.755393,590.948135 1502.455344,593.448135 C1503.15554,595.948135 1504.15554,598.748184 1504.65554,599.648086 C1505.15554,600.648086 1505.555442,602.348159 1505.555442,603.348159 C1505.555442,604.448135 1506.055442,605.648086 1506.555442,605.948135 C1507.15554,606.248184 1507.555442,607.448135 1507.555442,608.54811 C1507.555442,609.54811 1507.955344,611.248184 1508.455344,612.248184 C1508.955344,613.148086 1509.955344,615.948135 1510.65554,618.448135 C1511.355491,620.948135 1512.255393,623.348159 1512.755393,623.948135 C1513.15554,624.448135 1513.555442,625.848159 1513.555442,627.04811 C1513.555442,628.348159 1514.055442,629.648086 1514.555442,629.948135 C1515.15554,630.248184 1515.555442,631.448135 1515.555442,632.54811 C1515.555442,633.54811 1515.955344,635.248184 1516.455344,636.248184 C1517.65554,638.54811 1525.555442,663.04811 1525.555442,664.348159 C1525.555442,665.148086 1517.055442,665.448135 1498.555442,665.448135 C1468.355491,665.448135 1471.255393,664.648086 1468.255393,673.448135 C1467.355491,675.948135 1464.855491,683.148086 1462.65554,689.448135 C1446.855491,734.948135 1442.65554,747.748184 1443.15554,748.54811 C1443.455344,749.04811 1467.355491,749.448135 1498.455344,749.448135 C1498.455344,749.448135 1553.255393,749.448135 1553.255393,749.448135 C1553.255393,749.448135 1558.555442,765.648086 1558.555442,765.648086 C1561.755393,775.54811 1564.555442,782.648086 1565.755393,783.648086 C1567.65554,785.348159 1571.055442,785.448135 1607.955344,785.448135 C1629.955344,785.448135 1648.65554,785.04811 1649.455344,784.54811 C1651.255393,783.348159 1650.65554,780.248184 1645.555442,766.448135 C1643.15554,760.148086 1640.455344,752.648086 1639.455344,749.948135 C1638.455344,747.148086 1636.455344,741.748184 1635.055442,737.948135 C1633.65554,734.04811 1632.15554,730.04811 1631.855491,728.948135 C1631.555442,727.848159 1630.455344,725.04811 1629.455344,722.748184 C1628.455344,720.348159 1627.555442,717.848159 1627.555442,717.148086 C1627.555442,716.448135 1626.65554,713.948135 1625.555442,711.648086 C1624.455344,709.448135 1623.555442,706.848159 1623.555442,706.04811 C1623.555442,705.148086 1622.65554,702.54811 1621.65554,700.248184 C1620.555442,697.848159 1618.755393,693.348159 1617.65554,690.148086 C1616.455344,687.04811 1614.65554,681.948135 1613.555442,678.948135 C1612.455344,675.948135 1610.65554,670.948135 1609.555442,667.948135 C1608.455344,664.948135 1606.65554,659.948135 1605.555442,656.948135 C1604.455344,653.948135 1602.65554,648.948135 1601.555442,645.948135 C1600.455344,642.948135 1598.65554,637.948135 1597.555442,634.948135 C1596.455344,631.948135 1594.65554,626.948135 1593.555442,623.948135 C1592.455344,620.948135 1590.65554,615.948135 1589.555442,612.948135 C1587.65554,607.848159 1586.455344,604.448135 1581.355491,590.748184 C1580.355491,587.848159 1578.555442,583.04811 1577.455344,579.948135 C1576.355491,576.948135 1574.555442,572.04811 1573.455344,568.948135 C1572.355491,565.948135 1570.555442,561.04811 1569.455344,557.948135 C1564.755393,545.04811 1563.15554,540.748184 1562.055442,537.948135 C1561.355491,536.248184 1560.455344,533.848159 1560.055442,532.448135 C1559.755393,531.04811 1558.555442,528.04811 1557.455344,525.748184 C1556.455344,523.348159 1555.555442,520.748184 1555.555442,519.948135 C1555.555442,519.148086 1555.055442,517.648086 1554.555442,516.648086 C1553.955344,515.748184 1551.15554,508.148086 1548.15554,499.948135 C1539.15554,475.04811 1539.255393,475.148086 1536.755393,477.648086 M1117.755393,534.648086C1116.855491,535.54811 1116.555442,544.948135 1116.555442,570.948135 C1116.555442,596.948135 1116.855491,606.348159 1117.755393,607.248184 C1119.455344,608.948135 1219.65554,608.948135 1221.355491,607.248184 C1222.255393,606.348159 1222.555442,596.948135 1222.555442,570.948135 C1222.555442,544.948135 1222.255393,535.54811 1221.355491,534.648086 C1219.65554,532.948135 1119.455344,532.948135 1117.755393,534.648086 M1117.15554,711.04811C1116.855491,711.848159 1116.555442,728.248184 1116.555442,747.348159 C1116.555442,779.748184 1116.65554,782.248184 1118.355491,783.748184 C1120.055442,785.248184 1126.055442,785.448135 1183.65554,785.448135 C1232.855491,785.448135 1247.555442,785.148086 1248.855491,784.148086 C1250.455344,783.04811 1250.555442,779.848159 1250.355491,746.448135 C1250.355491,746.448135 1250.055442,709.948135 1250.055442,709.948135 C1250.055442,709.948135 1183.955344,709.648086 1183.955344,709.648086 C1124.255393,709.448135 1117.755393,709.54811 1117.15554,711.04811 M334.055442,833.648086C329.555442,835.248184 323.055442,839.948135 319.655418,844.148086 C314.555442,850.348159 313.355491,855.348159 312.855491,872.248184 C312.055442,896.848159 314.255393,906.148086 323.255393,914.748184 C330.455466,921.848159 344.655418,924.848159 355.655418,921.648086 C365.255393,918.848159 375.355491,907.948135 376.955466,898.748184 C377.255393,896.648086 377.555442,886.54811 377.555442,876.248184 C377.555442,859.648086 377.355491,856.848159 375.455466,851.848159 C372.655418,844.348159 367.655418,839.04811 360.055442,835.448135 C354.555442,832.848159 352.755393,832.448135 345.455466,832.54811 C340.855491,832.54811 335.755393,833.04811 334.055442,833.648086 M354.655418,848.748184C360.955466,852.848159 362.055442,856.748184 362.355491,875.948135 C362.755393,894.54811 361.955466,899.04811 357.655418,903.748184 C352.355491,909.54811 345.455466,910.848159 338.055442,907.348159 C331.955466,904.448135 330.155418,901.448135 328.755393,891.948135 C327.255393,881.948135 327.255393,875.54811 328.655418,864.04811 C329.755393,855.148086 329.955466,854.848159 334.255393,850.648086 C338.455466,846.648086 338.855491,846.448135 344.955466,846.448135 C349.855491,846.448135 352.055442,846.948135 354.655418,848.748184 M411.955466,834.54811C406.855491,836.448135 398.655418,843.748184 396.255393,848.448135 C393.255393,854.348159 392.455466,861.948135 392.855491,879.448135 C393.055442,889.04811 393.555442,898.248184 393.955466,899.948135 C396.955466,912.148086 407.555442,921.148086 421.055442,922.848159 C426.655418,923.648086 434.955466,922.248184 440.155418,919.848159 C444.155418,917.948135 449.555442,913.148086 449.555442,911.54811 C449.555442,910.848159 447.755393,908.54811 445.655418,906.448135 C441.555442,902.248184 440.055442,902.04811 436.055442,905.448135 C430.955426,909.648167 425.255434,910.448176 418.955466,907.848159 C409.455466,903.948135 408.455466,900.948135 408.355491,877.248184 C408.255393,858.748184 408.255393,858.54811 410.955466,854.04811 C414.255393,848.348159 417.855491,846.448135 425.055442,846.448135 C430.755393,846.448135 435.155418,848.04811 437.455466,850.848159 C439.555442,853.348159 441.955466,852.748184 445.355491,848.948135 C450.755393,843.04811 449.155418,839.748184 438.755393,834.848159 C431.955466,831.748184 419.655418,831.54811 411.955466,834.54811 M484.255393,833.848159C475.455466,837.04811 468.855491,843.54811 465.455466,852.448135 C463.855491,856.748184 463.555442,860.148086 463.555442,877.248184 C463.555442,894.248184 463.855491,897.748184 465.455466,902.248184 C469.855491,914.248184 478.755393,921.04811 492.555442,922.948135 C501.955466,924.248184 516.755393,918.648086 519.455466,912.748184 C520.255393,910.948135 519.855491,909.948135 516.455466,906.54811 C514.355491,904.248184 512.255393,902.448135 511.755393,902.448135 C511.055442,902.448135 506.555442,905.248184 505.555442,906.348159 C503.455466,908.748184 492.255393,910.348159 491.055442,908.448135 C490.755393,907.848159 489.655418,907.448135 488.655418,907.448135 C485.755393,907.448135 481.555442,902.04811 480.055442,896.348159 C478.255393,889.648086 478.055442,866.448135 479.755393,859.748184 C481.055442,854.348159 484.955466,848.448135 487.155418,848.448135 C487.855491,848.448135 488.555442,847.948135 488.555442,847.448135 C488.555442,846.848159 491.355491,846.448135 495.055442,846.448135 C501.655418,846.448135 506.055442,847.848159 508.455466,850.848159 C509.255393,851.748184 510.655418,852.448135 511.655418,852.448135 C513.955466,852.448135 520.755393,844.148086 520.055442,842.248184 C519.255393,840.148086 514.355491,836.748184 508.955466,834.448135 C503.455466,832.04811 490.155418,831.748184 484.255393,833.848159 M536.755393,833.648086C535.155418,835.248184 535.055442,892.848159 536.655418,898.848159 C540.355491,912.54811 548.655418,920.148086 562.455466,922.54811 C576.655418,925.04811 589.955466,918.948135 597.355491,906.448135 C597.355491,906.448135 600.055442,901.948135 600.055442,901.948135 C600.055442,901.948135 600.355491,868.648086 600.355491,868.648086 C600.655418,843.748184 600.455466,834.948135 599.555442,833.948135 C597.755393,831.748184 586.955466,831.848159 586.155418,834.04811 C585.855491,834.948135 585.555442,848.748184 585.555442,864.748184 C585.555442,881.948135 585.155418,895.448135 584.455466,897.748184 C582.655418,904.248184 575.355491,909.448135 568.155418,909.448135 C563.555442,909.448135 557.155418,906.04811 554.355491,902.248184 C552.055442,898.948135 552.055442,898.648086 551.755393,867.04811 C551.555442,845.948135 551.055442,834.648086 550.355491,833.748184 C549.055442,832.04811 538.355491,832.04811 536.755393,833.648086 M621.255393,833.148086C620.855491,833.448135 620.555442,853.448135 620.555442,877.54811 C620.555442,926.648086 619.755393,922.448135 628.555442,922.448135 C632.455466,922.448135 633.755393,922.04811 634.555442,920.54811 C635.055442,919.448135 635.555442,911.948135 635.555442,903.54811 C635.555442,903.54811 635.555442,888.448135 635.555442,888.448135 C635.555442,888.448135 646.655418,888.448135 646.655418,888.448135 C663.955466,888.448135 671.555442,885.54811 678.655418,876.04811 C681.555442,872.248184 682.455466,869.948135 682.955466,865.348159 C684.955466,848.04811 678.355491,838.04811 661.955466,833.54811 C657.555442,832.348159 622.355491,831.948135 621.255393,833.148086 M661.555442,848.448135C670.455466,852.948135 671.055442,866.54811 662.455466,871.348159 C659.355491,873.148086 657.055442,873.448135 647.155418,873.448135 C647.155418,873.448135 635.555442,873.448135 635.555442,873.448135 C635.555442,873.448135 635.555442,846.448135 635.555442,846.448135 C635.555442,846.448135 646.555442,846.448135 646.555442,846.448135 C655.655418,846.448135 658.355491,846.848159 661.555442,848.448135 M698.155418,834.648086C697.055442,838.748184 697.455466,918.448135 698.555442,920.54811 C699.355491,922.04811 700.755393,922.448135 704.655418,922.448135 C714.355491,922.448135 713.555442,926.148086 713.555442,878.348159 C713.555442,851.248184 713.155418,835.648086 712.555442,834.348159 C711.655418,832.748184 710.355491,832.448135 705.155418,832.448135 C699.355491,832.448135 698.755393,832.648086 698.155418,834.648086 M734.755393,833.648086C733.055442,835.348159 733.055442,919.54811 734.755393,921.248184 C736.155418,922.648086 788.155418,922.948135 790.355491,921.54811 C791.255393,921.04811 791.555442,918.948135 791.355491,914.848159 C791.355491,914.848159 791.055442,908.948135 791.055442,908.948135 C791.055442,908.948135 770.555442,908.448135 770.555442,908.448135 C770.555442,908.448135 750.055442,907.948135 750.055442,907.948135 C750.055442,907.948135 749.755393,896.248184 749.755393,896.248184 C749.755393,896.248184 749.455466,884.448135 749.455466,884.448135 C749.455466,884.448135 767.255393,884.248184 767.255393,884.248184 C767.255393,884.248184 785.055442,883.948135 785.055442,883.948135 C785.055442,883.948135 785.055442,870.948135 785.055442,870.948135 C785.055442,870.948135 767.555442,870.448135 767.555442,870.448135 C767.555442,870.448135 750.055442,869.948135 750.055442,869.948135 C750.055442,869.948135 750.055442,846.948135 750.055442,846.948135 C750.055442,846.948135 770.555442,846.448135 770.555442,846.448135 C770.555442,846.448135 791.055442,845.948135 791.055442,845.948135 C791.055442,845.948135 791.055442,832.948135 791.055442,832.948135 C791.055442,832.948135 763.555442,832.648086 763.555442,832.648086 C742.955466,832.448135 735.655418,832.748184 734.755393,833.648086 M809.155418,834.04811C808.355491,836.04811 808.355491,918.848159 809.155418,920.848159 C809.655418,922.04811 811.155418,922.448135 814.955466,922.448135 C823.455466,922.448135 823.455466,922.448135 823.755393,902.948135 C823.755393,902.948135 824.055442,885.948135 824.055442,885.948135 C824.055442,885.948135 839.055442,885.948135 839.055442,885.948135 C839.055442,885.948135 848.155418,903.948135 848.155418,903.948135 C848.155418,903.948135 857.155418,921.948135 857.155418,921.948135 C857.155418,921.948135 864.655418,921.948135 864.655418,921.948135 C871.355491,921.948135 872.055442,921.748184 872.355491,919.948135 C872.455466,918.848159 869.655418,912.04811 865.955466,904.948135 C856.855491,887.348159 855.555442,884.648086 855.555442,883.748184 C855.555442,883.348159 856.955466,882.348159 858.555442,881.648086 C872.255393,875.54811 875.855491,853.448135 865.055442,841.54811 C858.155418,833.948135 852.055442,832.448135 828.855491,832.448135 C812.355491,832.448135 809.655418,832.648086 809.155418,834.04811 M848.855491,847.948135C853.855491,850.04811 856.555442,854.248184 856.555442,859.848159 C856.555442,863.748184 856.055442,864.948135 853.055442,867.948135 C853.055442,867.948135 849.455466,871.448135 849.455466,871.448135 C849.455466,871.448135 823.555442,871.448135 823.555442,871.448135 C823.555442,871.448135 823.555442,859.648086 823.555442,859.648086 C823.555442,853.148086 823.855491,847.448135 824.255393,847.148086 C825.555442,845.748184 845.255393,846.448135 848.855491,847.948135 M931.755393,833.848159C926.555442,835.54811 919.355491,841.54811 916.855491,846.448135 C914.055442,851.948135 913.655418,863.148086 916.155418,868.948135 C919.855491,877.848159 932.355491,884.448135 945.555442,884.448135 C951.855491,884.448135 958.255393,887.948135 959.555442,892.04811 C961.255393,897.04811 959.955466,903.04811 956.755393,905.248184 C951.855491,908.648086 947.855491,909.648086 941.855491,909.148086 C933.855491,908.448135 930.855491,907.54811 925.755393,904.348159 C922.355491,902.148086 920.855491,901.748184 919.455466,902.54811 C916.355491,904.148086 912.555442,908.448135 912.555442,910.348159 C912.555442,913.848159 920.255393,919.04811 929.055442,921.448135 C935.355491,923.248184 948.555442,923.248184 955.355491,921.54811 C968.655418,918.248184 977.655418,904.848159 975.255393,892.04811 C972.855491,878.448135 965.755393,872.848159 948.055442,870.448135 C939.155418,869.248184 933.055442,867.04811 930.655418,864.148086 C928.455466,861.348159 928.355491,856.148086 930.455466,852.748184 C933.855491,847.348159 936.955466,845.948135 945.555442,846.04811 C952.055442,846.148086 953.955466,846.54811 958.355491,849.04811 C958.355491,849.04811 963.455466,851.948135 963.455466,851.948135 C963.455466,851.948135 967.555442,847.948135 967.555442,847.948135 C969.755393,845.848159 971.555442,843.448135 971.555442,842.748184 C971.555442,840.848159 965.255393,836.54811 959.355491,834.348159 C953.455466,832.248184 937.655418,831.848159 931.755393,833.848159 M1006.155418,835.448135C999.355491,838.848159 994.755393,843.448135 991.455466,850.248184 C989.155418,854.748184 989.055442,855.948135 989.055442,877.448135 C989.055442,899.148086 989.155418,900.148086 991.455466,904.748184 C994.555442,910.948135 1001.155418,917.54811 1007.255393,920.448135 C1014.255393,923.848159 1026.855491,923.748184 1034.555442,920.248184 C1046.055442,915.04811 1050.755393,908.248184 1052.555442,894.348159 C1054.555442,878.04811 1053.355491,855.848159 1049.955344,849.248184 C1047.355491,843.948135 1040.455344,837.54811 1034.755393,834.848159 C1030.455344,832.848159 1027.955344,832.448135 1020.755393,832.448135 C1013.155418,832.54811 1011.255393,832.848159 1006.155418,835.448135 M1028.855491,847.648086C1031.555442,849.04811 1034.255393,852.04811 1036.255393,855.948135 C1037.555442,858.348159 1037.855491,862.648086 1037.855491,877.448135 C1037.855491,900.848159 1036.755393,903.848159 1027.15554,907.848159 C1021.855491,910.04811 1018.355491,909.848159 1013.355491,907.04811 C1006.555442,903.348159 1004.855491,899.948135 1004.055442,888.748184 C1003.155418,876.748184 1004.155418,859.648086 1006.055442,855.148086 C1008.555442,849.248184 1012.855491,846.648086 1020.855491,846.54811 C1024.055442,846.448135 1027.65554,846.948135 1028.855491,847.648086 M1071.455344,835.148086C1070.255393,838.348159 1070.65554,919.248184 1071.955344,921.248184 C1072.455344,922.148086 1079.855491,922.448135 1099.055442,922.448135 C1128.855491,922.448135 1128.555442,922.54811 1128.555442,915.148086 C1128.555442,912.848159 1128.15554,910.348159 1127.755393,909.748184 C1127.15554,908.848159 1121.455344,908.448135 1107.055442,908.248184 C1107.055442,908.248184 1087.055442,907.948135 1087.055442,907.948135 C1087.055442,907.948135 1086.755393,871.54811 1086.755393,871.54811 C1086.65554,846.648086 1086.15554,834.648086 1085.455344,833.748184 C1084.755393,832.948135 1082.15554,832.448135 1078.455344,832.448135 C1072.855491,832.448135 1072.455344,832.648086 1071.455344,835.148086 M1141.15554,833.948135C1140.855491,834.848159 1140.555442,849.148086 1140.555442,865.648086 C1140.555442,899.04811 1141.15554,903.148086 1146.955344,910.648086 C1153.255393,919.04811 1161.855491,922.948135 1173.65554,922.748184 C1183.455344,922.748184 1190.055442,920.148086 1196.15554,913.948135 C1205.055442,905.04811 1204.955344,905.748184 1205.355491,867.848159 C1205.65554,839.54811 1205.455344,834.648086 1204.255393,833.54811 C1203.255393,832.848159 1200.455344,832.448135 1196.855491,832.648086 C1196.855491,832.648086 1191.055442,832.948135 1191.055442,832.948135 C1191.055442,832.948135 1190.555442,865.54811 1190.555442,865.54811 C1190.555442,865.54811 1190.055442,898.148086 1190.055442,898.148086 C1190.055442,898.148086 1187.555442,901.748184 1187.555442,901.748184 C1180.255393,912.54811 1164.055442,911.54811 1157.755393,899.948135 C1156.255393,897.348159 1155.955344,892.248184 1155.555442,864.948135 C1155.555442,864.948135 1155.055442,832.948135 1155.055442,832.948135 C1155.055442,832.948135 1148.455344,832.648086 1148.455344,832.648086 C1143.055442,832.448135 1141.65554,832.648086 1141.15554,833.948135 M1295.055442,833.648086C1294.055442,836.648086 1293.955344,920.448135 1294.955344,921.448135 C1296.055442,922.54811 1305.355491,922.848159 1307.955344,921.848159 C1309.355491,921.348159 1309.555442,916.54811 1309.555442,878.04811 C1309.555442,845.748184 1309.255393,834.54811 1308.355491,833.648086 C1306.755393,832.04811 1295.65554,832.04811 1295.055442,833.648086 M1346.755393,834.448135C1339.855491,837.54811 1334.15554,842.948135 1330.955344,849.148086 C1330.955344,849.148086 1328.055442,854.948135 1328.055442,854.948135 C1328.055442,854.948135 1328.055442,900.948135 1328.055442,900.948135 C1328.055442,900.948135 1330.755393,906.04811 1330.755393,906.04811 C1339.855491,923.348159 1362.555442,928.348159 1379.255393,916.848159 C1389.955344,909.448135 1393.055442,899.348159 1392.255393,873.448135 C1391.755393,854.04811 1390.255393,848.748184 1383.355491,841.648086 C1376.855491,835.04811 1371.855491,833.04811 1360.555442,832.748184 C1352.855491,832.54811 1350.255393,832.848159 1346.755393,834.448135 M1369.055442,848.648086C1375.755393,853.148086 1376.555442,856.248184 1376.555442,877.748184 C1376.555442,896.04811 1376.455344,896.948135 1374.15554,900.848159 C1371.455344,905.348159 1365.055442,909.448135 1360.555442,909.448135 C1357.255393,909.448135 1350.755393,906.948135 1348.15554,904.648086 C1347.15554,903.648086 1345.755393,901.748184 1344.955344,900.148086 C1341.255393,893.148086 1341.555442,861.04811 1345.355491,854.348159 C1348.355491,848.948135 1352.855491,846.448135 1359.755393,846.448135 C1364.15554,846.448135 1366.455344,847.04811 1369.055442,848.648086 M1411.255393,833.04811C1410.855491,833.448135 1410.555442,853.448135 1410.555442,877.54811 C1410.555442,926.348159 1409.955344,922.448135 1417.855491,922.448135 C1425.355491,922.448135 1424.955344,923.748184 1425.555442,892.248184 C1425.555442,892.248184 1426.055442,863.948135 1426.055442,863.948135 C1426.055442,863.948135 1434.65554,876.948135 1434.65554,876.948135 C1439.355491,884.04811 1447.355491,896.248184 1452.355491,903.948135 C1465.355491,924.148086 1463.855491,922.448135 1469.955344,922.448135 C1473.255393,922.448135 1475.755393,921.948135 1476.455344,921.04811 C1477.65554,919.54811 1478.355491,835.448135 1477.055442,833.54811 C1476.755393,832.948135 1473.755393,832.448135 1470.555442,832.448135 C1465.755393,832.448135 1464.455344,832.848159 1463.555442,834.348159 C1462.955344,835.54811 1462.555442,846.448135 1462.555442,862.848159 C1462.555442,877.448135 1462.255393,889.448135 1461.855491,889.448135 C1461.355491,889.448135 1455.855491,881.448135 1449.555442,871.748184 C1443.255393,862.04811 1434.855491,849.348159 1431.055442,843.54811 C1431.055442,843.54811 1423.955344,832.948135 1423.955344,832.948135 C1423.955344,832.948135 1417.955344,832.648086 1417.955344,832.648086 C1414.65554,832.448135 1411.65554,832.648086 1411.255393,833.04811 M1510.055442,834.948135C1503.855491,837.848159 1500.455344,840.848159 1497.455344,845.948135 C1495.555442,849.248184 1495.15554,851.448135 1495.15554,858.448135 C1495.055442,865.648086 1495.455344,867.54811 1497.455344,871.148086 C1501.755393,878.648086 1513.855491,884.448135 1525.355491,884.448135 C1529.755393,884.448135 1536.15554,886.54811 1537.955344,888.54811 C1538.65554,889.348159 1539.755393,891.448135 1540.355491,893.148086 C1542.455344,899.348159 1538.65554,905.648086 1531.455344,908.148086 C1527.255393,909.648086 1516.955344,909.848159 1516.055442,908.448135 C1515.755393,907.848159 1514.455344,907.448135 1513.15554,907.448135 C1511.955344,907.448135 1508.755393,906.04811 1506.15554,904.448135 C1506.15554,904.448135 1501.455344,901.448135 1501.455344,901.448135 C1501.455344,901.448135 1498.555442,903.448135 1498.555442,903.448135 C1496.955344,904.54811 1494.755393,906.748184 1493.555442,908.148086 C1493.555442,908.148086 1491.555442,910.748184 1491.555442,910.748184 C1491.555442,910.748184 1493.755393,913.148086 1493.755393,913.148086 C1500.255393,920.04811 1517.455344,924.448135 1530.055442,922.448135 C1538.755393,921.04811 1542.355491,919.448135 1547.555442,914.848159 C1553.65554,909.248184 1555.555442,904.948135 1555.555442,896.248184 C1555.455344,880.54811 1547.755393,873.148086 1528.555442,870.448135 C1517.255393,868.948135 1511.555442,866.148086 1509.755393,861.248184 C1508.455344,857.848159 1508.555442,857.148086 1510.455344,853.248184 C1513.15554,847.648086 1516.855491,845.948135 1526.255393,846.04811 C1533.15554,846.148086 1539.65554,848.148086 1541.055442,850.448135 C1542.255393,852.448135 1545.455344,851.348159 1548.455344,847.948135 C1550.15554,845.948135 1551.555442,843.648086 1551.555442,842.648086 C1551.555442,840.648086 1544.855491,836.148086 1538.555442,833.948135 C1535.855491,832.948135 1530.855491,832.448135 1524.65554,832.54811 C1516.755393,832.54811 1514.15554,832.948135 1510.055442,834.948135 M978.155418,363.648086C977.855491,364.948135 977.555442,460.648086 977.555442,576.448135 C977.555442,738.948135 977.855491,787.348159 978.755393,788.248184 C980.455466,789.948135 1060.65554,789.948135 1062.355491,788.248184 C1064.055442,786.54811 1064.055442,364.348159 1062.355491,362.648086 C1061.455344,361.748184 1050.65554,361.448135 1019.955466,361.448135 C1019.955466,361.448135 978.755393,361.448135 978.755393,361.448135 C978.755393,361.448135 978.155418,363.648086 978.155418,363.648086 ZM1218.055442,834.748184C1217.65554,836.04811 1217.555442,839.04811 1217.755393,841.54811 C1217.755393,841.54811 1218.055442,845.948135 1218.055442,845.948135 C1218.055442,845.948135 1229.855491,846.248184 1229.855491,846.248184 C1229.855491,846.248184 1241.555442,846.54811 1241.555442,846.54811 C1241.555442,846.54811 1241.555442,883.848159 1241.555442,883.848159 C1241.555442,925.348159 1241.055442,922.448135 1248.355491,922.448135 C1250.355491,922.448135 1253.055442,922.148086 1254.255393,921.848159 C1254.255393,921.848159 1256.555442,921.248184 1256.555442,921.248184 C1256.555442,921.248184 1256.755393,884.04811 1256.755393,884.04811 C1256.755393,884.04811 1257.055442,846.948135 1257.055442,846.948135 C1257.055442,846.948135 1268.055442,846.648086 1268.055442,846.648086 C1276.955344,846.448135 1279.255393,846.04811 1280.355491,844.748184 C1281.855491,842.748184 1281.955344,837.04811 1280.555442,834.348159 C1279.555442,832.54811 1278.15554,832.448135 1249.055442,832.448135 C1249.055442,832.448135 1218.555442,832.448135 1218.555442,832.448135 C1218.555442,832.448135 1218.055442,834.748184 1218.055442,834.748184 Z" fill="#ffffff"/>
		</g>
	</g>
</g></g></svg>