<?xml version="1.0" encoding="iso-8859-1"?>
<!-- Generator: Adobe Illustrator 27.1.1, SVG Export Plug-In . SVG Version: 6.00 Build 0)  -->
<svg version="1.1" id="Layer_1" xmlns="http://www.w3.org/2000/svg" xmlns:xlink="http://www.w3.org/1999/xlink" x="0px" y="0px"
	 viewBox="0 0 841.89 595.276" style="enable-background:new 0 0 841.89 595.276;" xml:space="preserve">
<g>
	<path style="fill:#FFFFFF;" d="M699.332,278.328c-10.222-10.124-22.373-15.193-36.455-15.193c-14.948,0-27.463,5.062-37.566,15.172
		c-7.327,7.342-11.981,15.874-13.988,25.584h-18.739c-0.278-4.271-0.826-8.082-1.652-11.415c-0.874-2.734-1.846-5.139-2.902-7.194
		c-1.056-2.056-2.461-4.391-4.202-7.006c-3.866-4.985-8.788-8.942-14.766-11.865c-5.978-2.93-12.34-4.398-19.066-4.398
		c-13.501,0-23.483,4.821-29.964,14.459l0.061-12.774h-20.367v40.192h-17.204c-2.015-9.653-6.739-18.175-14.193-25.563
		c-10.222-10.124-22.373-15.193-36.455-15.193c-14.948,0-27.464,5.062-37.566,15.172c-7.327,7.342-11.981,15.874-13.988,25.584
		h-14.422c-2.015-9.653-6.739-18.175-14.193-25.563c-10.222-10.124-22.373-15.193-36.455-15.193
		c-14.948,0-27.463,5.062-37.566,15.172c-7.327,7.342-11.981,15.874-13.988,25.584h-33.796c0.185-0.558,0.376-1.102,0.58-1.619
		c2.168-5.488,5.859-10.11,11.061-13.857c2.972-1.993,5.635-3.363,7.992-4.118c2.104-1,4.957-1.685,8.551-2.055l2.971-20.227h-3.349
		c-11.893,0-22.059,5.922-30.477,17.759v-16.074h-20.933v40.192H106.093v18.842h56.941c-8.559,14.343-24.229,23.951-42.145,23.951
		c-27.088,0-49.047-21.959-49.047-49.047c0-27.088,21.959-49.047,49.047-49.047c14.669,0,27.834,6.44,36.822,16.646l16.193-12.856
		c-12.771-14.921-31.743-24.377-52.923-24.377c-38.458,0-69.634,31.176-69.634,69.634c0,38.458,31.176,69.634,69.634,69.634
		c29.609,0,54.893-18.484,64.965-44.538h1.54h18.809v42.072h20.933V325.68c0-1.007,0.014-1.985,0.035-2.946h35.735
		c1.418,11.502,6.245,21.32,14.503,29.434c9.963,9.802,22.366,14.697,37.196,14.697c15.696,0,28.596-5.551,38.685-16.654
		l-14.948-12.872c-6.978,6.852-14.836,10.278-23.555,10.278c-9.096,0-16.668-3.139-22.702-9.425
		c-4.266-4.434-7.019-9.588-8.274-15.457h95.719c1.418,11.502,6.245,21.32,14.503,29.434c9.963,9.802,22.366,14.697,37.196,14.697
		c15.696,0,28.596-5.551,38.685-16.654l-14.948-12.872c-6.978,6.852-14.836,10.278-23.555,10.278
		c-9.096,0-16.668-3.139-22.702-9.425c-4.266-4.434-7.019-9.588-8.274-15.457h99.198v42.072h20.367v-42.072h52.71v42.072h19.996
		v-42.072h17.828c1.418,11.502,6.245,21.32,14.503,29.434c9.963,9.802,22.366,14.697,37.196,14.697
		c15.696,0,28.596-5.551,38.685-16.654l-14.948-12.872c-6.978,6.852-14.836,10.278-23.555,10.278
		c-9.096,0-16.668-3.139-22.702-9.425c-4.266-4.434-7.019-9.588-8.274-15.457l83.127,0.027c0.126-0.748,0-7.684,0-7.684
		C714.658,300.694,709.547,288.452,699.332,278.328z M284.745,303.891c1.476-4.631,3.949-8.722,7.431-12.265
		c6.034-6.16,13.669-9.243,22.891-9.243c7.229,0,13.55,2.097,18.969,6.272c4.98,3.843,8.657,8.93,11.062,15.236H284.745z
		 M401.37,303.891c1.476-4.631,3.949-8.722,7.431-12.265c6.034-6.16,13.669-9.243,22.891-9.243c7.229,0,13.55,2.097,18.968,6.272
		c4.981,3.843,8.657,8.93,11.062,15.236H401.37z M520.531,303.891c0.214-1.879,0.503-3.435,0.875-4.626
		c0.874-2.804,2.496-5.691,4.873-8.677c2.377-2.979,5.384-5.216,9.005-6.712c3.503-1.741,7.257-2.615,11.257-2.615
		c6.376,0,11.942,2.084,16.689,6.251c4.754,4.167,7.537,8.453,8.348,12.865c0.238,1.297,0.438,2.459,0.607,3.514H520.531z
		 M632.373,303.891c1.476-4.631,3.949-8.722,7.431-12.265c6.034-6.16,13.669-9.243,22.891-9.243c7.229,0,13.55,2.097,18.969,6.272
		c4.981,3.843,8.657,8.93,11.062,15.236H632.373z"/>
	<polygon style="fill:#FFFFFF;" points="754.27,262.703 754.27,230.06 733.344,230.06 733.344,262.703 717.012,262.703 
		717.012,280.035 733.344,280.035 733.344,286.594 733.344,364.81 754.27,364.81 754.27,281.448 754.27,280.035 790.543,280.035 
		790.543,262.703 	"/>
</g>
</svg>
