<?xml version="1.0" encoding="UTF-8"?>
<svg id="Laag_1" xmlns="http://www.w3.org/2000/svg" version="1.1" viewBox="0 0 841.9 186.6">
  <!-- Generator: Adobe Illustrator 29.3.1, SVG Export Plug-In . SVG Version: 2.1.0 Build 151)  -->
  <defs>
    <style>
      .st0 {
        fill: #fff;
      }
    </style>
  </defs>
  <path class="st0" d="M139.7,87.4l-7.1,3.3c2.4,5.6,3.8,11.8,3.8,18.3s-1.6,13.6-4.3,19.5l-11.9-54.6c3.8,3.3,7.1,7.1,9.7,11.4l7.1-3.3c-2.2-3.8-4.9-7.3-8-10.5,7.8-4.2,12.1-10,12.1-16.5s-1.9-9.8-5.4-13.2c-3.5-3.5-8.4-5.5-13.7-5.5s-.7,0-1,0c.7,2,.9,4.2.7,6.5h.2c7.1,0,12.5,5.2,12.5,12.2s-6.4,9.8-10.7,11.7c-3.4-2.7-7.1-5-11.1-6.8l4.4-7.6h0c0-.2,2-3.9,2.5-8.5.7-6.6-1.6-11.9-6.8-15.3-5.5-3.7-12.2-4.4-18-1.9-.4.1-2.6.9-4.6.9s-4.1-.7-4.6-.9c-5.8-2.5-12.4-1.8-18,1.9-5.2,3.5-7.5,8.8-6.8,15.3.5,4.6,2.4,8.3,2.5,8.4l4.4,7.7c-4,1.8-7.7,4.1-11.1,6.8-4.3-2-10.8-5.9-10.8-11.8s5.4-12.2,12.5-12.2h.2c-.2-2.3,0-4.5.7-6.5-.3,0-.6,0-1,0-5.3,0-10.2,1.9-13.7,5.5-3.5,3.5-5.4,8.2-5.4,13.2s4.3,12.2,12.1,16.5c-3.1,3.2-5.8,6.7-7.9,10.5l7.1,3.3c2.6-4.3,5.9-8.2,9.7-11.4l-11.9,54.5c-2.8-5.9-4.3-12.5-4.3-19.5s1.3-12.7,3.8-18.3l-7.1-3.3c0,.2-.2.4-.3.6-2.8,6.6-4.2,13.7-4.2,21s1.4,14.3,4.2,21c2.7,6.4,6.6,12.2,11.5,17.1,4.9,4.9,10.7,8.8,17.1,11.5,5.7,2.4,11.8,3.8,18,4.2v-7.9c-12.2-.8-23.2-6.4-31-14.9l8.9-42.4s.2-.7.7-.7.8.5.8.5l23.5,46.1,23.5-46.1s.2-.5.8-.5.7.7.7.7l8.9,42.4c-7.8,8.5-18.7,14.1-30.9,14.9v7.9c6.2-.3,12.2-1.7,18-4.2,6.4-2.7,12.2-6.6,17.1-11.5,4.9-4.9,8.8-10.7,11.5-17.1,2.8-6.6,4.2-13.7,4.2-21s-1.4-14.3-4.2-21c0-.2-.2-.4-.3-.6ZM93.9,34.8c.6-.7,1.7-1.7,3.5-2.5,1.8-.8,6.7-2.2,12,1.3,7.5,5,2.6,14.8,2.2,15.6l-4.8,8.4c-4.2-1.3-8.5-2.2-12.9-2.5v-20.4ZM71.2,33.7c5.3-3.6,10.2-2.1,12-1.3,1.8.8,2.9,1.8,3.5,2.5v20.4c-4.4.3-8.7,1.1-12.9,2.5l-4.8-8.4c-.4-.8-5.2-10.6,2.2-15.6ZM94.5,114.7s-1.9,4-4.2,4-4.2-4-4.2-4l-22.2-43.4c7.5-5.3,16.6-8.4,26.5-8.4s19,3.1,26.5,8.4l-22.3,43.4Z"/>
  <polygon class="st0" points="196.9 108.5 183.2 76.3 172.5 76.3 172.5 123.6 181.5 123.6 181.5 92.7 181.6 92.7 194.3 123.6 199.5 123.6 212.2 92 212.3 92 212.3 123.6 221.3 123.6 221.3 76.3 210.6 76.3 196.9 108.5"/>
  <polygon class="st0" points="234.5 123.6 264.6 123.6 264.6 115.2 243.9 115.2 243.9 103.9 264.1 103.9 264.1 95.5 243.9 95.5 243.9 84.8 264.6 84.8 264.6 76.3 234.5 76.3 234.5 123.6"/>
  <polygon class="st0" points="275.6 123.6 305.7 123.6 305.7 115.2 285 115.2 285 103.9 305.1 103.9 305.1 95.5 285 95.5 285 84.8 305.7 84.8 305.7 76.3 275.6 76.3 275.6 123.6"/>
  <polygon class="st0" points="332.7 111.1 332.5 111.1 322.4 76.3 312.1 76.3 327.4 123.6 337.4 123.6 352.7 76.3 342.5 76.3 332.7 111.1"/>
  <polygon class="st0" points="361.2 123.6 391.4 123.6 391.4 115.2 370.7 115.2 370.7 103.9 390.8 103.9 390.8 95.5 370.7 95.5 370.7 84.8 391.4 84.8 391.4 76.3 361.2 76.3 361.2 123.6"/>
  <path class="st0" d="M435.6,90.4c0-7.9-5.7-14.1-15.6-14.1h-17.7v47.2h9.4v-18.7h5.5l9.2,18.7h11.2l-11-19.9c6.1-1.8,8.8-8.3,8.8-13.3ZM418,97.3h-6.3v-12.9h6c6.8,0,8.4,3,8.4,6.4s-1.6,6.5-8.1,6.5Z"/>
  <path class="st0" d="M504.1,99.5h-8.3c0,2.8-.9,6.5-1.9,8.1l-7.5-9.4c5-2.3,8.5-6.5,8.5-12.3s-2.6-9.5-11.9-9.5-11.8,5-11.8,10.5,1,5.1,3.3,9c-5,2.2-9.5,7.2-9.5,13.9s5.7,14.6,16.1,14.6,10.1-2.3,12.7-4.3l2.6,3.4h10.4l-7.4-9.2c3-4.5,4-7.7,4.8-15ZM483.4,82.9c1.8,0,3.8,1.2,3.8,3.6s-1.2,3.5-5,6.1c-2.1-3.2-2.8-4.7-2.8-6,0-2.3,1.9-3.7,4-3.7ZM481.5,116.8c-3.8,0-7.5-2.8-7.5-7.2s.7-4.8,4.9-7.8l9.7,12.3c-1.6,1.6-4,2.6-7,2.6Z"/>
  <polygon class="st0" points="559.8 108.5 546.1 76.3 535.3 76.3 535.3 123.6 544.4 123.6 544.4 92.7 544.5 92.7 557.1 123.6 562.4 123.6 575 92 575.2 92 575.2 123.6 584.2 123.6 584.2 76.3 573.5 76.3 559.8 108.5"/>
  <polygon class="st0" points="597.3 123.6 627.5 123.6 627.5 115.2 606.8 115.2 606.8 103.9 626.9 103.9 626.9 95.5 606.8 95.5 606.8 84.8 627.5 84.8 627.5 76.3 597.3 76.3 597.3 123.6"/>
  <polygon class="st0" points="638.4 123.6 668.6 123.6 668.6 115.2 647.8 115.2 647.8 103.9 668 103.9 668 95.5 647.8 95.5 647.8 84.8 668.6 84.8 668.6 76.3 638.4 76.3 638.4 123.6"/>
  <polygon class="st0" points="695.5 111.1 695.4 111.1 685.3 76.3 674.9 76.3 690.3 123.6 700.2 123.6 715.6 76.3 705.4 76.3 695.5 111.1"/>
  <polygon class="st0" points="724.1 123.6 754.3 123.6 754.3 115.2 733.5 115.2 733.5 103.9 753.7 103.9 753.7 95.5 733.5 95.5 733.5 84.8 754.3 84.8 754.3 76.3 724.1 76.3 724.1 123.6"/>
  <path class="st0" d="M789.6,103.7c6.1-1.8,8.8-8.3,8.8-13.3,0-7.9-5.7-14.1-15.6-14.1h-17.7v47.2h9.4v-18.7h5.5l9.2,18.7h11.2l-11-19.9ZM780.9,97.3h-6.3v-12.9h6c6.8,0,8.4,3,8.4,6.4s-1.6,6.5-8.1,6.5Z"/>
</svg>