<svg xmlns="http://www.w3.org/2000/svg" viewBox="0 0 1028 342" width="1028" height="342"><defs></defs><g transform="matrix(1,0,0,1,-97,-4)">
<g transform="matrix(1,0,0,1,97,4)">
	<g>
		<path d="M108.739311,262.393196C97.554842,262.393196 86.775078,261.031929 76.400017,258.309395 C66.02495,255.586861 57.379062,251.50306 50.462352,246.057991 C59.586521,229.57562 64.148605,221.334435 64.148605,221.334435 C69.152186,225.45502 75.517031,228.729419 83.243141,231.157631 C90.969251,233.585833 98.584989,234.799935 106.090355,234.799935 C118.30497,234.799935 127.171603,232.0774 132.690254,226.632332 C138.2089,221.187264 140.968223,213.093244 140.968223,202.350273 C140.968223,190.429985 140.968223,184.469841 140.968223,184.469841 C140.968223,184.469841 143.175697,154.669121 143.175697,154.669121 C143.175697,154.669121 142.734199,124.647667 142.734199,124.647667 C142.734199,124.647667 142.734199,99.041123 142.734199,99.041123 C142.734199,99.041123 175.404609,99.041123 175.404609,99.041123 C175.404609,99.041123 175.404609,197.935356 175.404609,197.935356 C175.404609,220.009952 169.665214,236.271574 158.186424,246.720223 C146.707624,257.168872 130.225253,262.393196 108.739311,262.393196 C108.739311,262.393196 108.739311,262.393196 108.739311,262.393196 C108.739311,262.393196 108.739311,262.393196 108.739311,262.393196 ZM103.441406,212.063103C92.404103,212.063103 82.433738,209.671685 73.530311,204.888848 C64.626889,200.106021 57.489436,193.410057 52.11795,184.800957 C46.746462,176.191867 44.060718,166.147921 44.060718,154.669121 C44.060718,143.043165 46.746462,132.925639 52.11795,124.316544 C57.489436,115.707449 64.626889,109.048277 73.530311,104.339028 C82.433738,99.629779 92.404103,97.275154 103.441406,97.275154 C113.448557,97.275154 122.278399,99.298661 129.930931,103.345673 C137.583458,107.392685 143.543602,113.647156 147.811363,122.109085 C152.079114,130.571015 154.21299,141.42436 154.21299,154.669121 C154.21299,167.766726 152.079114,178.546491 147.811363,187.008415 C143.543602,195.47035 137.583458,201.761615 129.930931,205.88221 C122.278399,210.002805 113.448557,212.063103 103.441406,212.063103 C103.441406,212.063103 103.441406,212.063103 103.441406,212.063103 C103.441406,212.063103 103.441406,212.063103 103.441406,212.063103 ZM110.28453,183.80761C116.318257,183.80761 121.689745,182.593504 126.398994,180.165291 C131.108243,177.737089 134.787341,174.315524 137.436287,169.900597 C140.085243,165.48568 141.409721,160.408521 141.409721,154.669121 C141.409721,148.782565 140.085243,143.668618 137.436287,139.327278 C134.787341,134.985939 131.108243,131.601166 126.398994,129.172959 C121.689745,126.744751 116.318257,125.530648 110.28453,125.530648 C104.250803,125.530648 98.879315,126.744751 94.170067,129.172959 C89.460818,131.601166 85.744926,134.985939 83.022392,139.327278 C80.299858,143.668618 78.938591,148.782565 78.938591,154.669121 C78.938591,160.408521 80.299858,165.48568 83.022392,169.900597 C85.744926,174.315524 89.460818,177.737089 94.170067,180.165291 C98.879315,182.593504 104.250803,183.80761 110.28453,183.80761 C110.28453,183.80761 110.28453,183.80761 110.28453,183.80761 C110.28453,183.80761 110.28453,183.80761 110.28453,183.80761 ZM235.447532,219.568459C221.908439,219.568459 210.024945,216.919508 199.79705,211.621605 C189.569145,206.323703 181.65908,199.075875 176.066856,189.878121 C170.474622,180.680367 167.678505,170.194929 167.678505,158.421807 C167.678505,146.501524 170.437828,135.942505 175.956474,126.744751 C181.47513,117.547002 189.017285,110.335966 198.582939,105.111641 C208.148603,99.887317 218.965161,97.275154 231.032615,97.275154 C242.658572,97.275154 253.14401,99.740153 262.488929,104.670151 C271.833839,109.600144 279.228828,116.664017 284.673897,125.861771 C290.118965,135.05952 292.841499,146.060031 292.841499,158.863304 C292.841499,160.187777 292.767921,161.696205 292.620765,163.388588 C292.473589,165.080981 292.326423,166.662997 292.179268,168.134636 C227.868588,168.134636 195.713249,168.134636 195.713249,168.134636 C195.713249,168.134636 195.713249,148.046746 195.713249,148.046746 C195.713249,148.046746 274.078102,148.046746 274.078102,148.046746 C274.078102,148.046746 260.83332,154.00689 260.83332,154.00689 C260.83332,147.826002 259.582425,142.454514 257.080635,137.892426 C254.578855,133.330343 251.120506,129.761615 246.705589,127.186241 C242.290662,124.610873 237.13992,123.323189 231.253364,123.323189 C225.366798,123.323189 220.179263,124.610873 215.690757,127.186241 C211.202263,129.761615 207.70712,133.367134 205.20533,138.0028 C202.703539,142.638471 201.452644,148.120334 201.452644,154.448387 C201.452644,157.980319 201.452644,159.746285 201.452644,159.746285 C201.452644,166.221504 202.887494,171.924111 205.757194,176.854103 C208.626894,181.784096 212.673907,185.536776 217.898231,188.112145 C223.122546,190.687523 229.266639,191.975212 236.330513,191.975212 C242.658567,191.975212 248.214012,191.018644 252.996849,189.105507 C257.779676,187.192381 262.157804,184.32268 266.131233,180.496407 C278.345853,193.741178 284.453163,200.363564 284.453163,200.363564 C279.008095,206.544452 272.164965,211.290489 263.923774,214.601677 C255.682584,217.912865 246.190503,219.568459 235.447532,219.568459 C235.447532,219.568459 235.447532,219.568459 235.447532,219.568459 C235.447532,219.568459 235.447532,219.568459 235.447532,219.568459 ZM287.940956,217.802498C287.940956,217.802498 287.940956,99.041123 287.940956,99.041123 C287.940956,99.041123 320.8321,99.041123 320.8321,99.041123 C320.8321,99.041123 320.8321,131.932282 320.8321,131.932282 C320.8321,131.932282 314.651222,121.998711 314.651222,121.998711 C318.918983,114.051852 325.026283,107.944545 332.973121,103.676789 C340.91998,99.409032 349.970568,97.275154 360.124885,97.275154 C369.543383,97.275154 377.968523,99.151497 385.400306,102.904183 C392.832089,106.656863 398.681862,112.396258 402.949623,120.122368 C407.217384,127.848483 409.351265,137.745262 409.351265,149.812706 C409.351265,195.139234 409.351265,217.802498 409.351265,217.802498 C409.351265,217.802498 374.914894,217.802498 374.914894,217.802498 C374.914894,217.802498 374.914894,155.110619 374.914894,155.110619 C374.914894,145.544955 372.817807,138.481082 368.623634,133.918999 C364.429441,129.356916 358.50608,127.075875 350.853553,127.075875 C345.408485,127.075875 340.515286,128.216395 336.173958,130.497437 C331.832608,132.778478 328.447832,136.273623 326.01963,140.982872 C323.591428,145.692121 322.377327,151.725848 322.377327,159.084053 C322.377327,198.229683 322.377327,217.802498 322.377327,217.802498 C322.377327,217.802498 287.940956,217.802498 287.940956,217.802498 C287.940956,217.802498 287.940956,217.802498 287.940956,217.802498 C287.940956,217.802498 287.940956,217.802498 287.940956,217.802498 ZM482.815559,217.802498C482.815559,217.802498 482.815559,194.624153 482.815559,194.624153 C482.815559,194.624153 480.608101,189.547005 480.608101,189.547005 C480.608101,189.547005 480.608101,148.046746 480.608101,148.046746 C480.608101,140.688545 478.363848,134.949148 473.875343,130.828552 C469.386838,126.707962 462.506915,124.647667 453.235573,124.647667 C446.907529,124.647667 440.689847,125.641025 434.582527,127.627739 C428.475227,129.614454 423.287697,132.300197 419.019935,135.684967 C410.778745,119.644089 406.658149,111.62365 406.658149,111.62365 C413.133369,107.061562 420.933062,103.529625 430.057228,101.02784 C439.181414,98.52605 448.452756,97.275154 457.871254,97.275154 C475.97243,97.275154 490.026588,101.542911 500.033729,110.078423 C510.040891,118.61394 515.044471,131.932284 515.044471,150.033455 C515.044471,195.212817 515.044471,217.802498 515.044471,217.802498 C515.044471,217.802498 482.815559,217.802498 482.815559,217.802498 C482.815559,217.802498 482.815559,217.802498 482.815559,217.802498 C482.815559,217.802498 482.815559,217.802498 482.815559,217.802498 ZM446.613197,219.568459C437.341855,219.568459 429.394996,217.986448 422.772621,214.822426 C416.150245,211.658394 411.073087,207.353844 407.541145,201.908776 C404.009203,196.463707 402.243232,190.356402 402.243232,183.586861 C402.243232,176.522988 403.972409,170.3421 407.430763,165.044197 C410.889117,159.746285 416.370979,155.588901 423.87635,152.572045 C431.381721,149.555179 441.168129,148.046746 453.235573,148.046746 C474.280026,148.046746 484.802253,148.046746 484.802253,148.046746 C484.802253,148.046746 484.802253,168.134636 484.802253,168.134636 C484.802253,168.134636 456.988258,168.134636 456.988258,168.134636 C448.894244,168.134636 443.338803,169.459114 440.321937,172.108071 C437.305071,174.757017 435.796638,178.068204 435.796638,182.041634 C435.796638,186.456551 437.525815,189.951699 440.984169,192.527077 C444.442522,195.102445 449.188565,196.390129 455.222297,196.390129 C460.961698,196.390129 466.112434,195.028862 470.674507,192.306328 C475.2366,189.583794 478.547798,185.573576 480.608101,180.275673 C484.140022,190.871478 485.905983,196.16938 485.905983,196.16938 C483.404192,203.821907 478.842109,209.634885 472.219734,213.608315 C465.597358,217.581744 457.061846,219.568459 446.613197,219.568459 C446.613197,219.568459 446.613197,219.568459 446.613197,219.568459 C446.613197,219.568459 446.613197,219.568459 446.613197,219.568459 ZM570.628334,219.568459C559.443845,219.568459 549.363095,217.02988 540.386085,211.952721 C531.409116,206.875562 524.308469,199.7749 519.084144,190.650734 C513.859799,181.526558 511.247627,170.783582 511.247627,158.421807 C511.247627,145.912865 513.859799,135.096309 519.084144,125.972138 C524.308469,116.847972 531.409116,109.784099 540.386085,104.780518 C549.363095,99.776942 559.443845,97.275154 570.628334,97.275154 C580.635495,97.275154 589.391741,99.482615 596.897072,103.897537 C604.402443,108.31246 610.215431,115.008423 614.336036,123.985428 C618.456642,132.962433 620.516945,144.441226 620.516945,158.421807 C620.516945,172.255231 618.53023,183.697233 614.556801,192.747811 C610.583371,201.798399 604.880755,208.531156 597.448951,212.946083 C590.017189,217.361 581.076983,219.568459 570.628334,219.568459 C570.628334,219.568459 570.628334,219.568459 570.628334,219.568459 C570.628334,219.568459 570.628334,219.568459 570.628334,219.568459 ZM576.588478,191.312966C582.180682,191.312966 587.25783,189.988493 591.819923,187.339546 C596.382016,184.69059 600.02433,180.901116 602.746864,175.971123 C605.469398,171.04113 606.830665,165.191358 606.830665,158.421807 C606.830665,151.505099 605.469398,145.618538 602.746864,140.762123 C600.02433,135.905714 596.382016,132.153031 591.819923,129.504074 C587.25783,126.855123 582.180682,125.530648 576.588478,125.530648 C570.849057,125.530648 565.698321,126.855123 561.136268,129.504074 C556.574175,132.153031 552.931862,135.905714 550.209327,140.762123 C547.486793,145.618538 546.125526,151.505099 546.125526,158.421807 C546.125526,165.191358 547.486793,171.04113 550.209327,175.971123 C552.931862,180.901116 556.574175,184.69059 561.136268,187.339546 C565.698321,189.988493 570.849057,191.312966 576.588478,191.312966 C576.588478,191.312966 576.588478,191.312966 576.588478,191.312966 C576.588478,191.312966 576.588478,191.312966 576.588478,191.312966 ZM607.713661,217.802498C607.713661,217.802498 607.713661,193.520424 607.713661,193.520424 C607.713661,193.520424 608.375892,158.201058 608.375892,158.201058 C608.375892,158.201058 606.168434,123.10244 606.168434,123.10244 C606.168434,123.10244 606.168434,54.00893 606.168434,54.00893 C606.168434,54.00893 640.604835,54.00893 640.604835,54.00893 C640.604835,54.00893 640.604835,217.802498 640.604835,217.802498 C640.604835,217.802498 607.713661,217.802498 607.713661,217.802498 C607.713661,217.802498 607.713661,217.802498 607.713661,217.802498 C607.713661,217.802498 607.713661,217.802498 607.713661,217.802498 Z" fill="#000000"/>
	</g>
	<g>
		<path d="M648.991676,216.84329C648.991676,216.84329 648.991676,98.081922 648.991676,98.081922 C648.991676,98.081922 683.428077,98.081922 683.428077,98.081922 C683.428077,98.081922 683.428077,216.84329 683.428077,216.84329 C683.428077,216.84329 648.991676,216.84329 648.991676,216.84329 C648.991676,216.84329 648.991676,216.84329 648.991676,216.84329 C648.991676,216.84329 648.991676,216.84329 648.991676,216.84329 Z" fill="#000000"/>
	</g>
	<g>
		<path d="M742.586525,218.404371C732.726539,218.404371 723.933489,216.491239 716.207374,212.664976 C708.481259,208.838712 702.484331,202.98894 698.216591,195.115659 C693.948809,187.242389 691.814918,177.198443 691.814918,164.983824 C691.814918,120.245964 691.814918,97.877035 691.814918,97.877035 C691.814918,97.877035 726.25132,97.877035 726.25132,97.877035 C726.25132,97.877035 726.25132,159.906675 726.25132,159.906675 C726.25132,169.76666 728.348406,177.014489 732.542579,181.65016 C736.736753,186.28582 742.660113,188.603651 750.31266,188.603651 C755.610552,188.603651 760.319801,187.463133 764.440407,185.182096 C768.561012,182.90105 771.798622,179.369113 774.153236,174.586286 C776.50785,169.803449 777.685158,163.806516 777.685158,156.595487 C777.685158,117.449852 777.685158,97.877035 777.685158,97.877035 C777.685158,97.877035 812.121559,97.877035 812.121559,97.877035 C812.121559,97.877035 812.121559,216.63841 812.121559,216.63841 C812.121559,216.63841 779.451149,216.63841 779.451149,216.63841 C779.451149,216.63841 779.451149,183.967985 779.451149,183.967985 C779.451149,183.967985 785.411293,193.460066 785.411293,193.460066 C781.437863,201.701256 775.588091,207.918938 767.861976,212.113111 C760.135861,216.307284 751.710711,218.404371 742.586525,218.404371 C742.586525,218.404371 742.586525,218.404371 742.586525,218.404371 C742.586525,218.404371 742.586525,218.404371 742.586525,218.404371 Z" fill="#000000"/>
	</g>
	<g>
		<path d="M779.451149,216.63841C779.451149,216.63841 779.451149,97.877035 779.451149,97.877035 C779.451149,97.877035 812.342262,97.877035 812.342262,97.877035 C812.342262,97.877035 812.342262,130.326704 812.342262,130.326704 C812.342262,130.326704 806.161415,120.834623 806.161415,120.834623 C810.28198,112.740598 816.131752,106.5965 823.710731,102.402326 C831.28967,98.208153 839.935544,96.111067 849.648353,96.111067 C860.53849,96.111067 870.06736,98.870392 878.234962,104.389044 C886.402565,109.907695 891.810849,118.332835 894.459816,129.664465 C886.365781,127.457001 882.318763,126.353269 882.318763,126.353269 C886.292193,117.081938 892.657041,109.723737 901.413307,104.278669 C910.169573,98.833601 920.213519,96.111067 931.545143,96.111067 C940.963641,96.111067 949.315203,97.987407 956.59983,101.740087 C963.884458,105.492773 969.623858,111.23217 973.818031,118.95828 C978.012204,126.68439 980.109291,136.58117 980.109291,148.648618 C975.738319,194.019997 973.552833,216.705686 973.552833,216.705686 C973.552833,216.705686 945.672889,216.63841 945.672889,216.63841 C945.672889,216.63841 945.672889,153.946531 945.672889,153.946531 C945.672889,144.380867 943.686175,137.316994 939.712745,132.754911 C935.739316,128.192823 930.147092,125.911779 922.936073,125.911779 C917.932492,125.911779 913.443987,127.0523 909.470558,129.333341 C905.497129,131.614388 902.406674,135.035953 900.199196,139.598036 C897.991757,144.160118 896.888038,149.973097 896.888038,157.03697 C896.888038,196.771263 896.888038,216.63841 896.888038,216.63841 C896.888038,216.63841 862.451637,216.63841 862.451637,216.63841 C862.451637,216.63841 862.451637,153.946531 862.451637,153.946531 C862.451637,144.380867 860.501706,137.316994 856.601845,132.754911 C852.702024,128.192823 847.146583,125.911779 839.935524,125.911779 C834.931943,125.911779 830.443438,127.0523 826.470009,129.333341 C822.496579,131.614388 819.406145,135.035953 817.198707,139.598036 C814.991228,144.160118 813.887489,149.973097 813.887489,157.03697 C813.887489,196.771263 813.887489,216.63841 813.887489,216.63841 C813.887489,216.63841 779.451149,216.63841 779.451149,216.63841 C779.451149,216.63841 779.451149,216.63841 779.451149,216.63841 C779.451149,216.63841 779.451149,216.63841 779.451149,216.63841 Z" fill="#000000"/>
	</g>
	<g>
		<path d="" fill="#ffffff"/>
	</g>
	<g>
		<path d="M687.854758,31.989089C687.854758,31.989089 726.859308,85.955104 726.859308,85.955104 C726.859308,85.955104 648.850208,85.955104 648.850208,85.955104 C648.850208,85.955104 687.854758,31.989089 687.854758,31.989089 Z" fill="#4146b9"/>
	</g>
	<g>
		<path d="M512.809971,289.407461C512.809971,289.407461 505.220705,289.407461 505.220705,289.407461 C505.220705,289.407461 500.938191,279.649834 500.938191,279.649834 C500.938191,279.649834 483.970762,279.649834 483.970762,279.649834 C483.970762,279.649834 479.634038,289.407461 479.634038,289.407461 C479.634038,289.407461 472.098982,289.407461 472.098982,289.407461 C472.098982,289.407461 487.982231,253.629495 487.982231,253.629495 C487.982231,253.629495 496.872513,253.629495 496.872513,253.629495 C496.872513,253.629495 512.809971,289.407461 512.809971,289.407461 C512.809971,289.407461 512.809971,289.407461 512.809971,289.407461 ZM486.572796,273.68684C486.572796,273.68684 498.336157,273.68684 498.336157,273.68684 C498.336157,273.68684 492.427372,260.188789 492.427372,260.188789 C492.427372,260.188789 486.572796,273.68684 486.572796,273.68684 C486.572796,273.68684 486.572796,273.68684 486.572796,273.68684 ZM522.377866,289.407461C522.377866,289.407461 515.005437,289.407461 515.005437,289.407461 C515.005437,289.407461 515.005437,253.629495 515.005437,253.629495 C515.005437,253.629495 522.377866,253.629495 522.377866,253.629495 C522.377866,253.629495 522.377866,289.407461 522.377866,289.407461 C522.377866,289.407461 522.377866,289.407461 522.377866,289.407461 ZM552.312098,290.112179Q548.84272,290.112179 546.620149,288.946684 Q544.397578,287.78119 543.367607,285.883874 Q542.337635,283.986557 542.337635,281.709778 Q542.337635,280.896642 542.337635,280.896642 Q542.337635,279.487207 542.961039,277.806727 Q543.584443,276.126246 545.319132,274.798125 Q547.053821,273.470004 550.414782,273.144749 Q556.811449,272.494241 556.811449,272.494241 Q559.305064,272.223196 560.091095,271.925046 Q560.877127,271.626896 560.877127,270.759552 Q560.877127,268.916444 559.467692,268.320145 Q558.058256,267.723845 555.456223,267.723845 Q553.88416,267.723845 552.610248,267.967786 Q551.336336,268.211727 550.496095,268.780922 Q549.655855,269.350116 549.38481,270.434297 Q542.60868,268.808026 542.60868,268.808026 Q543.20498,266.802292 544.560206,265.419961 Q545.915432,264.037631 547.785643,263.170286 Q549.655855,262.302941 551.797112,261.950583 Q553.938369,261.598224 556.052522,261.598224 Q560.931336,261.706642 563.587579,263.143181 Q566.243822,264.579721 567.246689,267.073337 Q568.249556,269.566953 568.249556,272.873704 Q568.249556,289.407461 568.249556,289.407461 C568.249556,289.407461 561.202381,289.407461 561.202381,289.407461 C561.202381,289.407461 561.202381,286.154919 561.202381,286.154919 Q560.606081,287.130682 559.305064,288.025131 Q558.004047,288.91958 556.188045,289.515879 Q554.372042,290.112179 552.312098,290.112179 Q552.312098,290.112179 552.312098,290.112179 ZM553.775742,283.986557Q555.998313,283.986557 557.543271,283.28184 Q559.088228,282.577122 559.955573,281.628464 Q560.822918,280.679806 560.931336,279.812461 Q561.093963,279.107744 561.175276,278.240399 Q561.25659,277.373054 561.202381,276.559919 Q560.822918,276.939382 559.792946,277.102009 Q558.762974,277.264636 556.974076,277.481472 Q553.016816,277.915145 553.016816,277.915145 Q551.336336,278.131981 550.604514,278.836698 Q549.872691,279.541416 549.872691,280.625597 Q549.872691,280.950851 549.872691,280.950851 Q549.872691,281.818196 550.197946,282.522913 Q550.5232,283.227631 551.36344,283.607094 Q552.20368,283.986557 553.775742,283.986557 Q553.775742,283.986557 553.775742,283.986557 ZM584.290011,261.598224Q587.325717,261.598224 589.412765,262.763718 Q591.499813,263.929213 593.017666,265.77232 Q593.017666,262.302941 593.017666,262.302941 C593.017666,262.302941 600.281678,262.302941 600.281678,262.302941 C600.281678,262.302941 600.281678,288.160653 600.281678,288.160653 Q600.281678,292.28054 598.818034,295.39756 Q597.35439,298.51458 594.23737,300.276374 Q591.12035,302.038168 586.0247,302.038168 Q581.904813,302.038168 579.302779,301.0353 Q576.700745,300.032433 575.155788,298.21643 Q573.61083,296.400427 572.797694,293.906812 Q579.736452,292.388958 579.736452,292.388958 Q580.224333,293.581557 580.901946,294.367588 Q581.579559,295.153619 582.772158,295.560187 Q583.964757,295.966755 586.0247,295.966755 Q588.572525,295.966755 590.117483,295.09941 Q591.66244,294.232066 592.340053,292.497377 Q593.017666,290.762687 593.017666,288.160653 Q593.017666,285.938083 593.017666,285.938083 Q591.499813,287.726981 589.412765,288.91958 Q587.325717,290.112179 584.290011,290.112179 Q579.84487,290.112179 576.998895,288.241967 Q574.15292,286.371755 572.77059,283.146317 Q571.388259,279.920879 571.388259,275.855201 Q571.388259,271.735314 572.77059,268.509876 Q574.15292,265.284439 576.998895,263.441331 Q579.84487,261.598224 584.290011,261.598224 Q584.290011,261.598224 584.290011,261.598224 ZM578.652271,275.855201Q578.652271,278.294608 579.329884,280.056402 Q580.007497,281.818196 581.52535,282.766854 Q583.043203,283.715512 585.48261,283.715512 Q587.70518,283.715512 589.385661,282.793958 Q591.066141,281.872405 592.014799,280.137715 Q592.963457,278.403026 592.963457,275.855201 Q592.963457,273.253167 592.014799,271.518478 Q591.066141,269.783789 589.385661,268.88934 Q587.70518,267.994891 585.48261,267.994891 Q583.043203,267.994891 581.52535,268.916444 Q580.007497,269.837998 579.329884,271.599792 Q578.652271,273.361585 578.652271,275.855201 Q578.652271,275.855201 578.652271,275.855201 ZM631.722921,278.131981C631.722921,278.131981 610.798231,278.131981 610.798231,278.131981 Q610.960859,280.950851 613.047907,282.4416 Q615.134955,283.932348 618.387497,283.932348 Q620.284813,283.932348 621.504517,283.52578 Q622.72422,283.119213 623.537356,282.468704 Q624.350491,281.818196 624.946791,281.167687 Q630.963994,284.42023 630.963994,284.42023 Q629.50035,286.263337 627.874079,287.510145 Q626.247808,288.756953 623.998133,289.434566 Q621.748457,290.112179 618.387497,290.112179 Q613.400265,290.112179 610.039305,288.269071 Q606.678344,286.425964 604.997864,283.200526 Q603.317384,279.975088 603.317384,275.855201 Q603.317384,271.789523 604.835237,268.564085 Q606.35309,265.338648 609.524319,263.468436 Q612.695548,261.598224 617.682779,261.598224 Q622.670011,261.598224 625.787031,263.468436 Q628.904051,265.338648 630.313486,268.564085 Q631.722921,271.789523 631.722921,275.855201 Q631.722921,278.131981 631.722921,278.131981 C631.722921,278.131981 631.722921,278.131981 631.722921,278.131981 ZM610.906649,273.036331C610.906649,273.036331 624.133655,273.036331 624.133655,273.036331 Q624.079446,270.759552 622.453175,269.268803 Q620.826904,267.778054 617.682779,267.778054 Q614.538655,267.778054 612.912384,269.160385 Q611.286113,270.542715 610.906649,273.036331 Q610.906649,273.036331 610.906649,273.036331 ZM655.82426,289.624297C655.82426,289.624297 655.82426,275.855201 655.82426,275.855201 Q655.82426,272.060568 654.577452,270.027729 Q653.330644,267.994891 649.752847,267.994891 Q647.584486,267.994891 645.768483,269.268803 Q643.95248,270.542715 642.895404,272.629763 Q641.838328,274.716811 641.838328,277.264636 Q641.838328,289.624297 641.838328,289.624297 C641.838328,289.624297 634.628525,289.624297 634.628525,289.624297 C634.628525,289.624297 634.628525,262.519777 634.628525,262.519777 C634.628525,262.519777 641.838328,262.519777 641.838328,262.519777 C641.838328,262.519777 641.838328,266.477037 641.838328,266.477037 Q642.868299,265.392857 644.169316,264.254467 Q645.470333,263.116077 647.177918,262.384255 Q648.885503,261.652433 651.216492,261.652433 Q655.715842,261.652433 658.317876,263.468436 Q660.91991,265.284439 662.00409,268.455667 Q663.088271,271.626896 663.088271,275.692574 Q663.088271,289.624297 663.088271,289.624297 C663.088271,289.624297 655.82426,289.624297 655.82426,289.624297 C655.82426,289.624297 655.82426,289.624297 655.82426,289.624297 ZM684.159325,288.973789Q683.671444,289.244834 682.831204,289.488775 Q681.990964,289.732715 681.096514,289.895343 Q680.202065,290.05797 679.443139,290.112179 Q674.130653,290.329015 671.420201,287.699877 Q668.709749,285.070738 668.709749,279.32458 Q668.709749,268.374354 668.709749,268.374354 C668.709749,268.374354 664.589862,268.374354 664.589862,268.374354 C664.589862,268.374354 664.589862,262.302941 664.589862,262.302941 C664.589862,262.302941 669.19763,262.302941 669.19763,262.302941 C669.19763,262.302941 670.444438,253.087405 670.444438,253.087405 C670.444438,253.087405 675.919551,253.087405 675.919551,253.087405 C675.919551,253.087405 675.919551,262.302941 675.919551,262.302941 C675.919551,262.302941 683.454608,262.302941 683.454608,262.302941 C683.454608,262.302941 683.454608,268.374354 683.454608,268.374354 C683.454608,268.374354 675.919551,268.374354 675.919551,268.374354 C675.919551,268.374354 675.919551,278.511444 675.919551,278.511444 Q675.919551,281.872405 677.11215,282.98369 Q678.304749,284.094975 680.960992,283.715512 Q681.719918,283.661303 682.316218,283.417362 Q682.912517,283.173422 683.237771,283.065004 Q684.159325,288.973789 684.159325,288.973789 C684.159325,288.973789 684.159325,288.973789 684.159325,288.973789 ZM704.265458,270.542715Q703.452322,269.350116 702.069992,268.536981 Q700.687661,267.723845 698.031418,267.723845 Q696.405147,267.723845 695.266757,268.021995 Q694.128368,268.320145 693.504964,268.862235 Q692.88156,269.404326 692.88156,270.27167 Q692.88156,271.301642 693.911531,271.626896 Q694.941503,271.95215 696.893029,272.223196 Q701.934469,272.873704 701.934469,272.873704 Q705.403848,273.361585 707.246955,274.581289 Q709.090063,275.800992 709.79478,277.481472 Q710.499498,279.161953 710.499498,281.059269 Q710.499498,282.631331 709.821885,284.203393 Q709.144272,285.775456 707.707732,287.103577 Q706.271192,288.431699 703.994413,289.271939 Q701.717633,290.112179 698.465091,290.112179 Q694.453622,290.112179 691.716065,289.190625 Q688.978509,288.269071 687.325133,286.697009 Q685.671757,285.124947 684.804413,283.065004 Q690.821616,280.408761 690.821616,280.408761 Q691.14687,281.059269 691.932901,281.872405 Q692.718932,282.68554 694.182577,283.308944 Q695.646221,283.932348 698.085627,283.932348 Q699.982944,283.932348 701.175543,283.552885 Q702.368142,283.173422 702.856023,282.522913 Q703.343904,281.872405 703.343904,281.059269 Q703.343904,279.975088 702.557873,279.378789 Q701.771842,278.782489 699.495062,278.403026 Q694.670458,277.752518 694.670458,277.752518 Q691.14687,277.210427 689.195345,276.153351 Q687.243819,275.096275 686.484893,273.578422 Q685.725966,272.060568 685.725966,270.163252 Q685.725966,267.940681 687.054088,265.989156 Q688.382209,264.037631 691.119766,262.845032 Q693.857322,261.652433 698.194046,261.652433 Q700.904498,261.652433 703.262591,262.384255 Q705.620684,263.116077 707.436687,264.579721 Q709.25269,266.043365 710.499498,268.157518 Q704.265458,270.542715 704.265458,270.542715 C704.265458,270.542715 704.265458,270.542715 704.265458,270.542715 ZM746.524115,288.973789Q746.036234,289.244834 745.195994,289.488775 Q744.355753,289.732715 743.461304,289.895343 Q742.566855,290.05797 741.807929,290.112179 Q736.495443,290.329015 733.784991,287.699877 Q731.074539,285.070738 731.074539,279.32458 Q731.074539,268.374354 731.074539,268.374354 C731.074539,268.374354 726.954652,268.374354 726.954652,268.374354 C726.954652,268.374354 726.954652,262.302941 726.954652,262.302941 C726.954652,262.302941 731.56242,262.302941 731.56242,262.302941 C731.56242,262.302941 732.809228,253.087405 732.809228,253.087405 C732.809228,253.087405 738.284341,253.087405 738.284341,253.087405 C738.284341,253.087405 738.284341,262.302941 738.284341,262.302941 C738.284341,262.302941 745.819398,262.302941 745.819398,262.302941 C745.819398,262.302941 745.819398,268.374354 745.819398,268.374354 C745.819398,268.374354 738.284341,268.374354 738.284341,268.374354 C738.284341,268.374354 738.284341,278.511444 738.284341,278.511444 Q738.284341,281.872405 739.47694,282.98369 Q740.669539,284.094975 743.325782,283.715512 Q744.084708,283.661303 744.681008,283.417362 Q745.277307,283.173422 745.602561,283.065004 Q746.524115,288.973789 746.524115,288.973789 C746.524115,288.973789 746.524115,288.973789 746.524115,288.973789 ZM756.113694,289.407461C756.113694,289.407461 748.903892,289.407461 748.903892,289.407461 C748.903892,289.407461 748.903892,249.94328 748.903892,249.94328 C748.903892,249.94328 756.113694,249.94328 756.113694,249.94328 C756.113694,249.94328 756.113694,265.77232 756.113694,265.77232 Q757.631547,263.929213 759.827013,262.763718 Q762.02248,261.598224 765.058186,261.598224 Q769.286491,261.598224 772.024047,263.387122 Q774.761604,265.17602 776.089725,268.29304 Q777.417847,271.41006 777.417847,275.475738 Q777.417847,289.407461 777.417847,289.407461 C777.417847,289.407461 770.099626,289.407461 770.099626,289.407461 C770.099626,289.407461 770.099626,275.638365 770.099626,275.638365 Q770.153836,273.036331 769.503327,271.355851 Q768.852819,269.675371 767.416279,268.835131 Q765.979739,267.994891 763.757169,267.994891 Q761.42618,267.994891 759.7457,268.916444 Q758.06522,269.837998 757.116561,271.599792 Q756.167903,273.361585 756.167903,275.963619 Q756.113694,289.407461 756.113694,289.407461 C756.113694,289.407461 756.113694,289.407461 756.113694,289.407461 ZM790.184076,290.112179Q786.714697,290.112179 784.492127,288.946684 Q782.269556,287.78119 781.239584,285.883874 Q780.209612,283.986557 780.209612,281.709778 Q780.209612,280.896642 780.209612,280.896642 Q780.209612,279.487207 780.833016,277.806727 Q781.45642,276.126246 783.19111,274.798125 Q784.925799,273.470004 788.286759,273.144749 Q794.683426,272.494241 794.683426,272.494241 Q797.177042,272.223196 797.963073,271.925046 Q798.749104,271.626896 798.749104,270.759552 Q798.749104,268.916444 797.339669,268.320145 Q795.930234,267.723845 793.3282,267.723845 Q791.756138,267.723845 790.482225,267.967786 Q789.208313,268.211727 788.368073,268.780922 Q787.527833,269.350116 787.256788,270.434297 Q780.480658,268.808026 780.480658,268.808026 Q781.076957,266.802292 782.432183,265.419961 Q783.787409,264.037631 785.657621,263.170286 Q787.527833,262.302941 789.66909,261.950583 Q791.810347,261.598224 793.9245,261.598224 Q798.803313,261.706642 801.459556,263.143181 Q804.115799,264.579721 805.118666,267.073337 Q806.121534,269.566953 806.121534,272.873704 Q806.121534,289.407461 806.121534,289.407461 C806.121534,289.407461 799.074358,289.407461 799.074358,289.407461 C799.074358,289.407461 799.074358,286.154919 799.074358,286.154919 Q798.478059,287.130682 797.177042,288.025131 Q795.876025,288.91958 794.060022,289.515879 Q792.244019,290.112179 790.184076,290.112179 Q790.184076,290.112179 790.184076,290.112179 ZM791.64772,283.986557Q793.87029,283.986557 795.415248,283.28184 Q796.960206,282.577122 797.82755,281.628464 Q798.694895,280.679806 798.803313,279.812461 Q798.96594,279.107744 799.047254,278.240399 Q799.128567,277.373054 799.074358,276.559919 Q798.694895,276.939382 797.664923,277.102009 Q796.634952,277.264636 794.846053,277.481472 Q790.888793,277.915145 790.888793,277.915145 Q789.208313,278.131981 788.476491,278.836698 Q787.744669,279.541416 787.744669,280.625597 Q787.744669,280.950851 787.744669,280.950851 Q787.744669,281.818196 788.069923,282.522913 Q788.395177,283.227631 789.235418,283.607094 Q790.075658,283.986557 791.64772,283.986557 Q791.64772,283.986557 791.64772,283.986557 ZM827.428397,288.973789Q826.940515,289.244834 826.100275,289.488775 Q825.260035,289.732715 824.365586,289.895343 Q823.471137,290.05797 822.71221,290.112179 Q817.399724,290.329015 814.689272,287.699877 Q811.97882,285.070738 811.97882,279.32458 Q811.97882,268.374354 811.97882,268.374354 C811.97882,268.374354 807.858933,268.374354 807.858933,268.374354 C807.858933,268.374354 807.858933,262.302941 807.858933,262.302941 C807.858933,262.302941 812.466702,262.302941 812.466702,262.302941 C812.466702,262.302941 813.71351,253.087405 813.71351,253.087405 C813.71351,253.087405 819.188623,253.087405 819.188623,253.087405 C819.188623,253.087405 819.188623,262.302941 819.188623,262.302941 C819.188623,262.302941 826.723679,262.302941 826.723679,262.302941 C826.723679,262.302941 826.723679,268.374354 826.723679,268.374354 C826.723679,268.374354 819.188623,268.374354 819.188623,268.374354 C819.188623,268.374354 819.188623,278.511444 819.188623,278.511444 Q819.188623,281.872405 820.381221,282.98369 Q821.57382,284.094975 824.230063,283.715512 Q824.98899,283.661303 825.585289,283.417362 Q826.181589,283.173422 826.506843,283.065004 Q827.428397,288.973789 827.428397,288.973789 C827.428397,288.973789 827.428397,288.973789 827.428397,288.973789 ZM869.489191,262.302941C869.489191,262.302941 876.102694,281.438732 876.102694,281.438732 C876.102694,281.438732 882.065688,262.302941 882.065688,262.302941 C882.065688,262.302941 889.492326,262.302941 889.492326,262.302941 C889.492326,262.302941 880.222581,289.407461 880.222581,289.407461 C880.222581,289.407461 872.416479,289.407461 872.416479,289.407461 C872.416479,289.407461 866.182439,271.735314 866.182439,271.735314 C866.182439,271.735314 859.839982,289.407461 859.839982,289.407461 C859.839982,289.407461 852.03388,289.407461 852.03388,289.407461 C852.03388,289.407461 842.818343,262.302941 842.818343,262.302941 C842.818343,262.302941 850.190772,262.302941 850.190772,262.302941 C850.190772,262.302941 856.153767,281.438732 856.153767,281.438732 C856.153767,281.438732 862.76727,262.302941 862.76727,262.302941 C862.76727,262.302941 869.489191,262.302941 869.489191,262.302941 C869.489191,262.302941 869.489191,262.302941 869.489191,262.302941 ZM902.681386,290.112179Q897.856781,290.112179 894.631343,288.269071 Q891.405906,286.425964 889.806739,283.200526 Q888.207572,279.975088 888.207572,275.855201 Q888.207572,271.789523 889.806739,268.564085 Q891.405906,265.338648 894.631343,263.468436 Q897.856781,261.598224 902.681386,261.598224 Q907.451781,261.598224 910.677219,263.468436 Q913.902657,265.338648 915.474719,268.564085 Q917.046781,271.789523 917.046781,275.855201 Q917.046781,279.975088 915.474719,283.200526 Q913.902657,286.425964 910.677219,288.269071 Q907.451781,290.112179 902.681386,290.112179 Q902.681386,290.112179 902.681386,290.112179 ZM902.681386,283.715512Q905.012375,283.715512 906.611541,282.848167 Q908.210708,281.980823 908.996739,280.246134 Q909.78277,278.511444 909.78277,275.855201 Q909.78277,273.253167 908.996739,271.518478 Q908.210708,269.783789 906.611541,268.88934 Q905.012375,267.994891 902.681386,267.994891 Q900.296188,267.994891 898.697021,268.88934 Q897.097855,269.783789 896.284719,271.518478 Q895.471584,273.253167 895.471584,275.855201 Q895.471584,278.511444 896.284719,280.246134 Q897.097855,281.980823 898.697021,282.848167 Q900.296188,283.715512 902.681386,283.715512 Q902.681386,283.715512 902.681386,283.715512 ZM938.32654,268.808026Q937.838659,268.59119 937.242359,268.401458 Q936.64606,268.211727 935.724506,268.211727 Q933.447726,268.211727 931.658828,269.377221 Q929.86993,270.542715 928.839958,272.602659 Q927.809986,274.662602 927.809986,277.264636 Q927.809986,289.624297 927.809986,289.624297 C927.809986,289.624297 920.600184,289.624297 920.600184,289.624297 C920.600184,289.624297 920.600184,262.519777 920.600184,262.519777 C920.600184,262.519777 927.809986,262.519777 927.809986,262.519777 C927.809986,262.519777 927.809986,266.477037 927.809986,266.477037 Q928.839958,265.392857 930.059661,264.308676 Q931.279365,263.224495 932.905636,262.519777 Q934.531907,261.81506 936.862896,261.81506 Q938.001286,261.81506 939.031258,261.977687 Q940.061229,262.140314 940.820156,262.411359 Q938.32654,268.808026 938.32654,268.808026 C938.32654,268.808026 938.32654,268.808026 938.32654,268.808026 ZM941.457112,289.407461C941.457112,289.407461 941.457112,253.195823 941.457112,253.195823 C941.457112,253.195823 948.666914,253.195823 948.666914,253.195823 C948.666914,253.195823 948.666914,271.301642 948.666914,271.301642 C948.666914,271.301642 959.07505,262.302941 959.07505,262.302941 C959.07505,262.302941 968.019542,262.302941 968.019542,262.302941 C968.019542,262.302941 956.635643,272.331614 956.635643,272.331614 C956.635643,272.331614 968.236378,289.407461 968.236378,289.407461 C968.236378,289.407461 960.21344,289.407461 960.21344,289.407461 C960.21344,289.407461 951.594203,276.776755 951.594203,276.776755 C951.594203,276.776755 948.666914,279.32458 948.666914,279.32458 C948.666914,279.32458 948.666914,289.407461 948.666914,289.407461 C948.666914,289.407461 941.457112,289.407461 941.457112,289.407461 C941.457112,289.407461 941.457112,289.407461 941.457112,289.407461 Z" fill="#000000"/>
	</g>
</g></g></svg>